<svg width="85" height="55" xmlns="http://www.w3.org/2000/svg"><g fill="#FFF" fill-rule="evenodd"><path d="M77.287 41.356a1.86 1.86 0 0 1 1.88 1.878 1.859 1.859 0 0 1-1.88 1.88 1.854 1.854 0 0 1-1.872-1.88c0-1.053.822-1.878 1.871-1.878zm0 .328c-.858 0-1.504.666-1.504 1.55 0 .885.647 1.552 1.504 1.552.867 0 1.52-.667 1.52-1.552 0-.884-.653-1.55-1.52-1.55zm.125.665c.33 0 .544.198.544.504 0 .185-.112.352-.305.457l-.021.011.462.78h-.38l-.413-.717h-.324v.716h-.348v-1.75zm-.068.251h-.37v.533h.35c.203 0 .293-.132.293-.26 0-.166-.108-.273-.273-.273z"/><path d="m53.115 44.01-.02-.024c1.147-1.663 2.723-3.797 3.287-4.193.039-.016.07-.03.112-.05 1.705-.099 2.662-.696 2.913-.879.323-.233 1.265-1.153 1.42-1.32.163-.174.65-1.286.85-1.756l-.022.04.079-.186.014-.049.13-.404a.338.338 0 0 0-.178-.287c-.076-.042-.17-.04-.271-.032a.126.126 0 0 0 .006-.024c.062-.128.128-.298.128-.415l-.002-.027a.39.39 0 0 0-.197-.296c-.114-.065-.264-.06-.42-.026a.61.61 0 0 0-.183-.172c-.032-.024-.22-.09-.564.121-.133.078-.268.224-.378.36.014-.106.025-.212.025-.212a.366.366 0 0 0-.23-.254c-.164-.06-.37-.02-.57.111-.22.15-.512.611-.595.75-.073.06-.362.31-.534.613-.558.178-.904.17-1.048.112.338-.194.605-.383.752-.555.33-.4.516-.822.516-1.163a.875.875 0 0 0-.016-.17.475.475 0 0 0-.24-.342c-.333-.168-.731.172-.808.243-.006.008-.116.125-.178.191-.125.03-.39.11-.564.265-.123.11-.27.16-.442.217-.205.07-.435.15-.665.343l-.017.014c.005-.005.012-.007.016-.01l-.52.352c-.528.277-.806.556-1.106.852-.59.592-1.332 1.325-4.652 2.432-.03-1.224-.778-4.51-.93-5.768-.306-2.223-2.863-5.28-4.706-7.214 1.737 1.013 2.707 1.156 3.663-.154.252-.397.65.031 1.01-.038.526-.275.458-.423.458-.806.152-.41.566-.207.87-.255.776-.129.316-.948.619-1.357 3.398-.205-.434-3.349 1.854-4.653 1.487-.698 2.05-1.63 2.714-2.53.549-.746.66-.165 1.07-.776.74-2.679-.537-5.987-2.183-8.26C44.947-4.55 35.317.484 32.509 7.245c-1.163 1.718-.802 4.216-.868 6.271-.217.714-.644.694-1.257.273-.138 1.414.96 1.697 1.45 1.79.05.182.372.458.506.646-.44.13-1.358-.127-1.66-.29-.01.321.028.585.284.878.203 1.01.712 1.366 1.439 1.665 1.353.553.719 2.421.56 3.187-.05.17-.101.34-.146.501-1.25.322-2.084 1.462-2.417 2.644-.153 2.866-1.62 5.245-1.596 8.211 0 0-.024.436 0 .612.73 3.21-.202 7.415-.048 10.724C18.122 45.953 8.343 49.394 0 54.236c12.369-5.01 26.802-7.896 42.229-7.896 15.425 0 29.856 2.886 42.227 7.896-9.015-5.233-19.708-8.828-31.342-10.226m-9.25-9.967c-.061.172-.234.185-.234.185-2.995.1-5.56 1.312-7.621 3.612 0 0-.23.224-.812-.235-.447-.35-.282-.72-.282-.72.793-2.01 2.838-3.336 6.074-3.938l.095-.014c.66-.092 2.203-.306 2.725.736 0 0 .115.2.055.374"/></g></svg>