<?xml version="1.0" encoding="utf-8"?>
<!-- Generator: Adobe Illustrator 24.1.2, SVG Export Plug-In . SVG Version: 6.00 Build 0)  -->
<svg version="1.1" id="Layer_1" xmlns="http://www.w3.org/2000/svg" xmlns:xlink="http://www.w3.org/1999/xlink" x="0px" y="0px"
	 viewBox="0 0 72 72" style="enable-background:new 0 0 72 72;" xml:space="preserve">
<style type="text/css">
	.st0{fill:#FFFFFF;}
</style>
<g>
	<g>
		<path class="st0" d="M54.6,38.6c1.2,4.9,0.2,9.1-2.5,11.8c-1.9,1.7-4.4,2.7-7.2,2.7c-4.2,0-9-1.9-13.4-5.6l-5.5,5.1h-9.9l10.7-10
			l0,0c-0.1-0.1-0.2-0.2-0.2-0.3c-5.7-7.6-6.5-16.3-1.8-20.7c2.5-2.3,6.1-3.1,10.3-2.3l0.7,0.2l-3.8,4h-0.2
			c-1.4,0.2-2.7,0.8-3.6,1.7c-3.2,3.1-2.7,9.2,1.1,14.7c0.1,0.1,0.2,0.2,0.2,0.3l0,0l16.5-15.5h9.9L34.1,45
			c5.3,4.1,11.4,4.9,14.7,1.8c1.3-1.2,2.1-3,2.2-5.1v-0.2l3.6-3.7L54.6,38.6z"/>
	</g>
	<g>
		<path class="st0" d="M26.8,42.5l-0.2-0.2l0,0C26.6,42.4,26.7,42.5,26.8,42.5z"/>
		<path class="st0" d="M29.5,40.2L29.5,40.2c-0.1-0.1-0.2-0.2-0.2-0.3l0,0L29.5,40.2z"/>
	</g>
	<g>
		<path class="st0" d="M53.7,35.7l-3.1,3.1l-0.2-0.7c-0.2-1.2-0.7-2.4-1.3-3.6L49,34.3l2.6-2.7l0.2,0.4c0.7,1.2,1.2,2.3,1.7,3.5
			L53.7,35.7z"/>
	</g>
	<g>
		<path class="st0" d="M42.4,22.4L39.9,25l-0.2-0.1c-1.2-0.7-2.6-1.1-3.7-1.4l-0.6-0.1l2.9-3.1l0.2,0.1c1.2,0.4,2.3,1.1,3.6,1.7
			L42.4,22.4z"/>
	</g>
</g>
</svg>
