<?xml version="1.0" encoding="UTF-8"?>
<svg width="500px" height="154px" viewBox="0 0 500 154" version="1.1" xmlns="http://www.w3.org/2000/svg" xmlns:xlink="http://www.w3.org/1999/xlink">
    <title>stjude-childrens-horizontal-white</title>
    <g id="Symbols" stroke="none" stroke-width="1" fill="none" fill-rule="evenodd">
        <g id="stjude-childrens-horizontal-white" fill="#FFFFFF">
            <g id="ALSAC---Danny-Thomas" transform="translate(229.325962, 128.821474)">
                <path d="M232.287179,1.16025641 C233.354487,1.16025641 233.957051,1.77884615 233.957051,2.64102564 C233.957051,3.43589744 233.392949,4.14423077 232.235897,4.14423077 L230.271154,4.14423077 L230.271154,1.16025641 L232.287179,1.16025641 Z M229.011538,8.84294872 L230.271154,8.84294872 L230.271154,5.12820513 L232.069231,5.12820513 L233.989103,8.13461538 C234.328846,8.66987179 234.623718,8.85576923 235.303205,8.87179487 C235.55,8.87179487 235.671795,8.84294872 235.915385,8.81730769 L235.915385,7.83974359 C235.902564,7.8525641 235.585256,7.8525641 235.572436,7.8525641 C235.303205,7.8525641 235.155769,7.75 235.033974,7.54807692 L233.354487,4.95512821 C234.466667,4.58012821 235.207051,3.68589744 235.207051,2.61538462 C235.207051,1.17307692 234.123718,0.144230769 232.425,0.144230769 L229.011538,0.144230769 L229.011538,8.84294872 Z M220.610897,8.84294872 L226.642949,8.84294872 L226.642949,7.83974359 L221.867308,7.83974359 L221.867308,4.83333333 L225.469872,4.83333333 L225.469872,3.81089744 L221.867308,3.81089744 L221.867308,1.17307692 L226.585256,1.17307692 L226.585256,0.144230769 L220.610897,0.144230769 L220.610897,8.84294872 Z M213.594872,1.19551282 C215.623718,1.19551282 216.854487,2.62820513 216.854487,4.49038462 C216.854487,6.35897436 215.636538,7.78525641 213.620513,7.78525641 L211.883333,7.78525641 L211.883333,1.19551282 L213.594872,1.19551282 Z M210.623718,8.84294872 L213.684615,8.84294872 C216.303205,8.84294872 218.114103,6.99038462 218.114103,4.49038462 C218.114103,1.99038462 216.380128,0.144230769 213.767949,0.144230769 L210.623718,0.144230769 L210.623718,8.84294872 Z M201.566026,2.75 L201.540385,1.90705128 L202.091667,2.75 L206.277564,8.84294872 L207.610897,8.84294872 L207.610897,0.144230769 L206.437821,0.144230769 L206.469872,6.30448718 L206.479487,7.11858974 L205.950641,6.30448718 L201.703846,0.144230769 L200.41859,0.144230769 L200.41859,8.84294872 L201.588462,8.84294872 L201.566026,2.75 Z M194.146154,7.875 C192.876923,7.875 191.957051,7.06730769 191.957051,5.66025641 L191.957051,0.144230769 L190.694231,0.144230769 L190.694231,5.76282051 C190.694231,7.72435897 192.117308,8.98076923 194.146154,8.98076923 C196.139744,8.98076923 197.588462,7.68910256 197.588462,5.76282051 L197.588462,0.144230769 L196.328846,0.144230769 L196.328846,5.66025641 C196.328846,7.06730769 195.392949,7.875 194.146154,7.875 L194.146154,7.875 Z M184.059615,7.875 C182.30641,7.875 180.976282,6.45512821 180.976282,4.49038462 C180.976282,2.52564103 182.30641,1.10897436 184.059615,1.10897436 C185.8,1.10897436 187.133333,2.52564103 187.133333,4.49038462 C187.133333,6.45512821 185.8,7.875 184.059615,7.875 L184.059615,7.875 Z M184.059615,-3.8430797e-14 C181.639744,-3.8430797e-14 179.713462,1.88461538 179.713462,4.49038462 C179.713462,7.10576923 181.639744,8.98076923 184.059615,8.98076923 C186.463462,8.98076923 188.392949,7.10576923 188.392949,4.49038462 C188.392949,1.88461538 186.463462,-3.8430797e-14 184.059615,-3.8430797e-14 L184.059615,-3.8430797e-14 Z M173.68141,8.84294872 L173.68141,4.91346154 L177.29359,4.91346154 L177.29359,3.87179487 L173.68141,3.87179487 L173.68141,1.17307692 L178.396154,1.17307692 L178.396154,0.144230769 L172.421795,0.144230769 L172.421795,8.84294872 L173.68141,8.84294872 Z M166.617308,9.2275641 C166.803205,8.84294872 166.941026,8.50961538 166.941026,8.14423077 C166.941026,7.49358974 166.524359,7.125 166.001923,7.125 C165.495513,7.125 165.107692,7.53846154 165.107692,8.00961538 C165.107692,8.46153846 165.415385,8.79807692 165.848077,8.875 L165.066026,10.8205128 L165.880128,10.8205128 L166.617308,9.2275641 Z M159.934615,8.97115385 C161.832051,8.97115385 163.120513,7.8525641 163.120513,6.38141026 C163.120513,5.32692308 162.604487,4.61858974 160.979487,4.10897436 L159.495513,3.6474359 C158.546795,3.33653846 158.094872,2.95192308 158.094872,2.28205128 C158.094872,1.53205128 158.723077,1.0224359 159.780769,1.0224359 C160.636538,1.0224359 161.469872,1.41987179 162.05,2.13141026 L162.93141,1.3974359 C162.277564,0.628205128 161.232692,0.016025641 159.780769,0.016025641 C158.030769,0.016025641 156.873718,0.987179487 156.873718,2.44230769 C156.873718,3.50961538 157.514744,4.26923077 158.925,4.67628205 L160.460256,5.15064103 C161.585256,5.5 161.873718,5.93589744 161.873718,6.50641026 C161.873718,7.35897436 161.104487,7.97435897 159.934615,7.97435897 C158.889744,7.97435897 158.04359,7.53846154 157.364103,6.86538462 L156.55641,7.66346154 C157.364103,8.48076923 158.546795,8.97115385 159.934615,8.97115385 L159.934615,8.97115385 Z M149.671795,5.46153846 L151.194231,1.3974359 L152.732692,5.46153846 L149.671795,5.46153846 Z M154.005128,8.84294872 L155.322436,8.84294872 L151.934615,0.144230769 L150.514744,0.144230769 L147.126923,8.84294872 L148.396154,8.84294872 L149.287179,6.45512821 L153.094872,6.45512821 L154.005128,8.84294872 Z M137.537179,3.125 L137.527564,1.94230769 L138.04359,3.1474359 L140.287179,8.22115385 L141.258333,8.22115385 L143.508333,3.1474359 L144.037179,1.93269231 L144.011538,3.125 L143.985897,8.84294872 L145.197436,8.84294872 L145.197436,0.144230769 L143.662179,0.144230769 L141.258333,5.57692308 L140.803205,6.67948718 L140.338462,5.57692308 L137.928205,0.144230769 L136.392949,0.144230769 L136.392949,8.84294872 L137.566026,8.84294872 L137.537179,3.125 Z M129.569231,7.875 C127.816026,7.875 126.479487,6.45512821 126.479487,4.49038462 C126.479487,2.52564103 127.816026,1.10897436 129.569231,1.10897436 C131.303205,1.10897436 132.639744,2.52564103 132.639744,4.49038462 C132.639744,6.45512821 131.303205,7.875 129.569231,7.875 L129.569231,7.875 Z M129.569231,-3.8430797e-14 C127.146154,-3.8430797e-14 125.223077,1.88461538 125.223077,4.49038462 C125.223077,7.10576923 127.146154,8.98076923 129.569231,8.98076923 C131.973077,8.98076923 133.899359,7.10576923 133.899359,4.49038462 C133.899359,1.88461538 131.973077,-3.8430797e-14 129.569231,-3.8430797e-14 L129.569231,-3.8430797e-14 Z M121.482692,8.84294872 L122.742308,8.84294872 L122.742308,0.144230769 L121.482692,0.144230769 L121.482692,3.82371795 L117.162179,3.82371795 L117.162179,0.144230769 L115.899359,0.144230769 L115.899359,8.84294872 L117.162179,8.84294872 L117.162179,4.89102564 L121.482692,4.89102564 L121.482692,8.84294872 Z M106.566026,1.18269231 L109.575641,1.18269231 L109.575641,8.84294872 L110.835256,8.84294872 L110.835256,1.18269231 L113.835256,1.18269231 L113.835256,0.144230769 L106.566026,0.144230769 L106.566026,1.18269231 Z M102.072436,0.144230769 L100.726282,0.144230769 L98.2070513,4.23076923 L95.675,0.144230769 L94.2903846,0.144230769 L97.55,5.2724359 L97.55,8.84294872 L98.8064103,8.84294872 L98.8064103,5.2724359 L102.072436,0.144230769 Z M86.3160256,2.75 L86.2935897,1.90705128 L86.8448718,2.75 L91.0275641,8.84294872 L92.3641026,8.84294872 L92.3641026,0.144230769 L91.1910256,0.144230769 L91.2134615,6.30448718 L91.2262821,7.11858974 L90.6974359,6.30448718 L86.4538462,0.144230769 L85.1685897,0.144230769 L85.1685897,8.84294872 L86.3416667,8.84294872 L86.3160256,2.75 Z M76.1076923,2.75 L76.0884615,1.90705128 L76.6397436,2.75 L80.8224359,8.84294872 L82.1621795,8.84294872 L82.1621795,0.144230769 L80.9858974,0.144230769 L81.0115385,6.30448718 L81.024359,7.11858974 L80.4955128,6.30448718 L76.2487179,0.144230769 L74.9666667,0.144230769 L74.9666667,8.84294872 L76.1397436,8.84294872 L76.1076923,2.75 Z M67.3737179,5.46153846 L68.8961538,1.3974359 L70.4346154,5.46153846 L67.3737179,5.46153846 Z M71.7038462,8.84294872 L73.0307692,8.84294872 L69.6365385,0.144230769 L68.2166667,0.144230769 L64.8288462,8.84294872 L66.1012821,8.84294872 L66.9955128,6.45512821 L70.8,6.45512821 L71.7038462,8.84294872 Z M59.0211538,1.19551282 C61.05,1.19551282 62.2839744,2.62820513 62.2839744,4.49038462 C62.2839744,6.35897436 61.0628205,7.78525641 59.0467949,7.78525641 L57.3096154,7.78525641 L57.3096154,1.19551282 L59.0211538,1.19551282 Z M56.05,8.84294872 L59.1076923,8.84294872 C61.7262821,8.84294872 63.5435897,6.99038462 63.5435897,4.49038462 C63.5435897,1.99038462 61.8064103,0.144230769 59.1974359,0.144230769 L56.05,0.144230769 L56.05,8.84294872 Z" id="Fill-11"></path>
                <path d="M49.4445513,5.97083333 C50.2009615,5.97083333 50.8227564,5.3875 50.8227564,4.6375 C50.8227564,3.89391026 50.2009615,3.29134615 49.4445513,3.29134615 C48.7009615,3.29134615 48.0823718,3.89391026 48.0823718,4.6375 C48.0823718,5.3875 48.7009615,5.97083333 49.4445513,5.97083333" id="Fill-13"></path>
                <path d="M39.2467949,7.87403846 C37.5192308,7.86121795 36.1987179,6.49262821 36.1987179,4.49583333 C36.1987179,2.46378205 37.5576923,1.11121795 39.2339744,1.11121795 C40.4326923,1.11121795 41.2628205,1.64326923 41.8397436,2.72980769 L42.9519231,2.22980769 C42.2211538,0.82275641 41.0352564,0.00544871795 39.2596154,0.00544871795 C36.8557692,0.00544871795 34.9391026,1.82916667 34.9391026,4.49583333 C34.9391026,7.15288462 36.8557692,8.97980769 39.2467949,8.97980769 C41.0128205,8.97980769 42.1955128,8.12403846 42.9198718,6.75544872 L41.8525641,6.29711538 C41.2884615,7.36442308 40.4455128,7.87403846 39.2467949,7.87403846 L39.2467949,7.87403846 Z M28.0032051,5.46057692 L29.5224359,1.39647436 L31.0608974,5.46057692 L28.0032051,5.46057692 Z M32.3333333,8.84519231 L33.6538462,8.84519231 L30.2692308,0.140064103 L28.8429487,0.140064103 L25.4551282,8.84519231 L26.7275641,8.84519231 L27.6185897,6.45737179 L31.4262821,6.45737179 L32.3333333,8.84519231 Z M20.9198718,8.96698718 C22.8205128,8.96698718 24.1089744,7.85160256 24.1089744,6.38365385 C24.1089744,5.32596154 23.5929487,4.61762821 21.9615385,4.10801282 L20.4807692,3.64647436 C19.5384615,3.33557692 19.0833333,2.94775641 19.0833333,2.28108974 C19.0833333,1.53108974 19.7115385,1.02467949 20.7660256,1.02467949 C21.6282051,1.02467949 22.4583333,1.41891026 23.0320513,2.13044872 L23.9198718,1.39647436 C23.2628205,0.624038462 22.2179487,0.0182692308 20.7660256,0.0182692308 C19.0192308,0.0182692308 17.8589744,0.986217949 17.8589744,2.43814103 C17.8589744,3.51185897 18.5032051,4.27147436 19.9134615,4.67852564 L21.4487179,5.14967949 C22.5737179,5.49903846 22.8621795,5.9349359 22.8621795,6.50865385 C22.8621795,7.35160256 22.0897436,7.97339744 20.9198718,7.97339744 C19.875,7.97339744 19.0320513,7.54070513 18.349359,6.86762821 L17.5448718,7.6625 C18.349359,8.47980769 19.5384615,8.96698718 20.9198718,8.96698718 L20.9198718,8.96698718 Z M16.1762821,7.7875 L11.400641,7.7875 L11.400641,0.140064103 L10.1410256,0.140064103 L10.1410256,8.84519231 L16.1762821,8.84519231 L16.1762821,7.7875 Z M2.54487179,5.46057692 L4.06410256,1.39647436 L5.60576923,5.46057692 L2.54487179,5.46057692 Z M6.875,8.84519231 L8.19551282,8.84519231 L4.81410256,0.140064103 L3.38782051,0.140064103 L-2.73285668e-13,8.84519231 L1.2724359,8.84519231 L2.16987179,6.45737179 L5.97115385,6.45737179 L6.875,8.84519231 Z" id="Fill-15"></path>
            </g>
            <path d="M482.8125,112.707051 C482.254808,112.707051 481.793269,113.16859 481.793269,113.713462 C481.793269,114.264744 482.254808,114.726282 482.8125,114.726282 C483.373397,114.726282 483.831731,114.264744 483.831731,113.713462 C483.831731,113.16859 483.373397,112.707051 482.8125,112.707051 L482.8125,112.707051 Z M475.0625,105.963462 C476.44391,105.963462 477.408654,106.819231 477.408654,108.473077 L477.408654,114.626923 L478.950321,114.626923 L478.950321,108.165385 C478.950321,106.059615 477.5625,104.601282 475.386218,104.601282 C474.136218,104.601282 472.998397,105.069231 472.174679,105.93141 L472.152244,104.80641 L470.655449,104.80641 L470.655449,114.626923 L472.174679,114.626923 L472.174679,107.261538 C473.059295,106.328846 474.116987,105.963462 475.0625,105.963462 L475.0625,105.963462 Z M463.350962,105.912179 C465.081731,105.912179 466.197115,107.197436 466.315705,108.889744 L460.350962,108.889744 C460.636218,107.085256 461.850962,105.912179 463.350962,105.912179 L463.350962,105.912179 Z M467.774038,112.594872 L466.565705,111.912179 C465.850962,112.969872 464.850962,113.508333 463.600962,113.508333 C461.850962,113.508333 460.482372,112.082051 460.3125,110.142949 L467.934295,110.142949 C467.947115,109.937821 467.947115,109.764744 467.947115,109.559615 C467.947115,107.011538 466.485577,104.601282 463.386218,104.601282 C460.850962,104.601282 458.732372,106.630128 458.732372,109.707051 C458.732372,112.687821 460.94391,114.854487 463.645833,114.854487 C465.334936,114.854487 466.870192,114.059615 467.774038,112.594872 L467.774038,112.594872 Z M457.620192,106.059615 L457.5625,104.601282 C456.001603,104.578846 454.594551,105.219872 453.748397,106.575641 L453.732372,104.80641 L452.229167,104.80641 L452.229167,114.626923 L453.748397,114.626923 L453.748397,108.165385 C454.466346,106.745513 456.155449,106.017949 457.620192,106.059615 L457.620192,106.059615 Z M441.142628,109.707051 C441.142628,107.54359 442.511218,105.963462 444.514423,105.963462 C445.607372,105.963462 446.591346,106.41859 447.341346,107.312821 L447.341346,112.136538 C446.607372,113.017949 445.626603,113.450641 444.514423,113.450641 C442.511218,113.450641 441.142628,111.838462 441.142628,109.707051 L441.142628,109.707051 Z M447.357372,114.626923 L448.876603,114.626923 L448.876603,100.796795 L447.341346,100.796795 L447.341346,105.646154 C446.552885,104.957051 445.514423,104.601282 444.341346,104.601282 C441.610577,104.617308 439.565705,106.819231 439.565705,109.707051 C439.565705,112.594872 441.584936,114.835256 444.341346,114.835256 C445.514423,114.835256 446.572115,114.399359 447.341346,113.636538 L447.357372,114.626923 Z M435.354167,114.626923 L436.892628,114.626923 L436.892628,100.796795 L435.354167,100.796795 L435.354167,114.626923 Z M430.491987,114.630128 L432.014423,114.630128 L432.014423,104.80641 L430.491987,104.80641 L430.491987,114.630128 Z M431.248397,103.001923 C431.841346,103.001923 432.325321,102.54359 432.325321,101.957051 C432.325321,101.373718 431.841346,100.889744 431.248397,100.889744 C430.668269,100.889744 430.190705,101.373718 430.190705,101.957051 C430.190705,102.54359 430.668269,103.001923 431.248397,103.001923 L431.248397,103.001923 Z M423.286859,105.963462 C424.671474,105.963462 425.636218,106.819231 425.636218,108.473077 L425.636218,114.626923 L427.177885,114.626923 L427.177885,108.165385 C427.177885,106.059615 425.786859,104.601282 423.610577,104.601282 C422.363782,104.601282 421.225962,105.069231 420.402244,105.912179 L420.402244,100.796795 L418.883013,100.796795 L418.883013,114.626923 L420.402244,114.626923 L420.402244,107.261538 C421.286859,106.328846 422.341346,105.963462 423.286859,105.963462 L423.286859,105.963462 Z M412.408654,104.601282 C409.616987,104.601282 407.578526,106.764744 407.578526,109.707051 C407.578526,112.671795 409.636218,114.854487 412.427885,114.854487 C414.350962,114.854487 415.777244,113.790385 416.546474,112.251923 L415.19391,111.66859 C414.600962,112.767949 413.892628,113.466667 412.331731,113.466667 C410.520833,113.466667 409.174679,111.950641 409.174679,109.707051 C409.174679,107.54359 410.520833,105.982692 412.354167,105.982692 C413.850962,105.982692 414.626603,106.745513 415.158654,107.809615 L416.546474,107.197436 C415.758013,105.562821 414.331731,104.601282 412.408654,104.601282 L412.408654,104.601282 Z M392.434295,109.652564 C392.434295,107.54359 393.764423,105.963462 395.741987,105.963462 C396.822115,105.963462 397.783654,106.41859 398.536859,107.312821 L398.536859,112.069231 C397.80609,112.934615 396.844551,113.373718 395.741987,113.373718 C393.764423,113.373718 392.434295,111.758333 392.434295,109.652564 L392.434295,109.652564 Z M400.081731,114.098077 L400.081731,104.80641 L398.572115,104.80641 L398.572115,105.658974 C397.783654,104.979487 396.745192,104.601282 395.572115,104.601282 C392.863782,104.617308 390.860577,106.819231 390.860577,109.652564 C390.860577,112.517949 392.841346,114.761538 395.549679,114.761538 C396.729167,114.761538 397.767628,114.325641 398.536859,113.566026 L398.536859,114.098077 C398.536859,116.142949 397.302885,117.533974 395.286859,117.533974 C393.9375,117.533974 392.918269,116.979487 392.190705,115.899359 L390.972756,116.79359 C391.876603,118.008333 393.1875,118.902564 395.322115,118.902564 C398.421474,118.902564 400.081731,116.944231 400.081731,114.098077 L400.081731,114.098077 Z M384.334936,105.963462 C385.719551,105.963462 386.68109,106.819231 386.68109,108.473077 L386.68109,114.626923 L388.222756,114.626923 L388.222756,108.165385 C388.222756,106.059615 386.834936,104.601282 384.658654,104.601282 C383.408654,104.601282 382.274038,105.069231 381.447115,105.93141 L381.424679,104.80641 L379.927885,104.80641 L379.927885,114.626923 L381.447115,114.626923 L381.447115,107.261538 C382.331731,106.328846 383.389423,105.963462 384.334936,105.963462 L384.334936,105.963462 Z M375.052885,114.630128 L376.575321,114.630128 L376.575321,104.80641 L375.052885,104.80641 L375.052885,114.630128 Z M375.802885,103.001923 C376.395833,103.001923 376.879808,102.54359 376.879808,101.957051 C376.879808,101.373718 376.395833,100.889744 375.802885,100.889744 C375.222756,100.889744 374.745192,101.373718 374.745192,101.957051 C374.745192,102.54359 375.222756,103.001923 375.802885,103.001923 L375.802885,103.001923 Z M372.985577,104.80641 L371.402244,104.80641 L368.767628,111.723077 L368.325321,112.969872 L367.863782,111.723077 L365.229167,104.80641 L363.572115,104.80641 L367.421474,114.626923 L369.152244,114.626923 L372.985577,104.80641 Z M355.520833,112.082051 C355.520833,111.117308 356.155449,110.636538 358.328526,110.223077 L360.408654,109.857692 L360.408654,112.104487 C359.620192,112.950641 358.578526,113.566026 357.334936,113.566026 C356.216346,113.566026 355.520833,112.995513 355.520833,112.082051 L355.520833,112.082051 Z M360.427885,114.626923 L361.947115,114.626923 L361.947115,108.242308 C361.947115,106.001923 360.600962,104.617308 358.136218,104.617308 C355.578526,104.617308 354.274038,106.136538 354.155449,107.774359 L355.639423,107.979487 C355.751603,106.726282 356.578526,105.93141 358.0625,105.93141 C359.524038,105.93141 360.408654,106.8 360.408654,108.242308 L360.408654,108.68141 L357.466346,109.194231 C354.905449,109.652564 353.959936,110.559615 353.959936,112.232692 C353.959936,113.732692 355.200321,114.835256 357.078526,114.835256 C358.350962,114.835256 359.581731,114.245513 360.427885,113.373718 L360.427885,114.626923 Z M347.084936,114.816026 C349.911859,114.816026 351.799679,113.146154 351.799679,110.921795 C351.799679,109.325641 351.046474,108.280769 348.642628,107.524359 L346.334936,106.764744 C344.796474,106.267949 344.0625,105.646154 344.0625,104.540385 C344.0625,103.322436 345.100962,102.473077 346.777244,102.473077 C348.139423,102.473077 349.453526,103.098077 350.299679,104.200641 L351.511218,103.267949 C350.565705,102.091667 348.985577,101.142949 346.793269,101.142949 C344.254808,101.142949 342.488782,102.54359 342.488782,104.771154 C342.488782,106.380128 343.508013,107.485897 345.546474,108.126923 L347.93109,108.873718 C349.758013,109.441026 350.203526,110.162179 350.203526,111.091667 C350.203526,112.482692 348.969551,113.508333 347.065705,113.508333 C345.43109,113.508333 344.136218,112.822436 343.100962,111.780769 L342.001603,112.783974 C343.216346,114.059615 345.004808,114.816026 347.084936,114.816026 L347.084936,114.816026 Z M334.828526,112.707051 C334.267628,112.707051 333.80609,113.16859 333.80609,113.713462 C333.80609,114.264744 334.267628,114.726282 334.828526,114.726282 C335.386218,114.726282 335.847756,114.264744 335.847756,113.713462 C335.847756,113.16859 335.386218,112.707051 334.828526,112.707051 L334.828526,112.707051 Z M324.123397,113.235897 C325.296474,114.3 326.527244,114.854487 328.088141,114.854487 C330.165064,114.854487 331.706731,113.748718 331.706731,111.912179 C331.706731,110.582051 331.06891,109.803205 329.165064,109.213462 L327.418269,108.662179 C326.469551,108.376923 325.969551,107.979487 325.969551,107.216667 C325.969551,106.399359 326.629808,105.828846 327.741987,105.828846 C328.799679,105.828846 329.700321,106.328846 330.453526,107.178205 L331.533654,106.248718 C330.453526,105.187821 329.379808,104.601282 327.838141,104.601282 C325.988782,104.601282 324.488782,105.585256 324.488782,107.351282 C324.488782,108.623718 325.258013,109.559615 326.950321,110.053205 L328.777244,110.559615 C329.780449,110.867308 330.245192,111.30641 330.245192,112.069231 C330.245192,112.950641 329.472756,113.601282 328.123397,113.601282 C327.200321,113.601282 326.258013,113.280769 325.18109,112.30641 L324.123397,113.235897 Z M318.020833,105.912179 C319.751603,105.912179 320.863782,107.197436 320.979167,108.889744 L315.014423,108.889744 C315.302885,107.085256 316.514423,105.912179 318.020833,105.912179 L318.020833,105.912179 Z M322.440705,112.594872 L321.232372,111.912179 C320.517628,112.969872 319.517628,113.508333 318.264423,113.508333 C316.514423,113.508333 315.152244,112.082051 314.979167,110.142949 L322.594551,110.142949 C322.620192,109.937821 322.620192,109.764744 322.620192,109.559615 C322.620192,107.011538 321.152244,104.601282 318.05609,104.601282 C315.514423,104.601282 313.405449,106.630128 313.405449,109.707051 C313.405449,112.687821 315.610577,114.854487 318.30609,114.854487 C320.001603,114.854487 321.536859,114.059615 322.440705,112.594872 L322.440705,112.594872 Z M312.286859,106.059615 L312.225962,104.601282 C310.665064,104.578846 309.264423,105.219872 308.415064,106.575641 L308.399038,104.80641 L306.895833,104.80641 L306.895833,114.626923 L308.415064,114.626923 L308.415064,108.165385 C309.133013,106.745513 310.825321,106.017949 312.286859,106.059615 L312.286859,106.059615 Z M302.017628,114.626923 L303.536859,114.626923 L303.536859,104.80641 L301.998397,104.80641 L301.998397,112.216667 C301.133013,113.107692 300.094551,113.466667 299.149038,113.466667 C297.770833,113.466667 296.786859,112.617308 296.786859,110.960256 L296.786859,104.80641 L295.264423,104.80641 L295.264423,111.267949 C295.264423,113.373718 296.633013,114.854487 298.825321,114.854487 C300.036859,114.854487 301.171474,114.399359 301.998397,113.578846 L302.017628,114.626923 Z M288.879808,104.601282 C286.088141,104.601282 284.049679,106.764744 284.049679,109.707051 C284.049679,112.671795 286.107372,114.854487 288.899038,114.854487 C290.828526,114.854487 292.248397,113.790385 293.017628,112.251923 L291.668269,111.66859 C291.072115,112.767949 290.360577,113.466667 288.80609,113.466667 C286.995192,113.466667 285.649038,111.950641 285.649038,109.707051 C285.649038,107.54359 286.995192,105.982692 288.81891,105.982692 C290.325321,105.982692 291.091346,106.745513 291.636218,107.809615 L293.017628,107.197436 C292.229167,105.562821 290.802885,104.601282 288.879808,104.601282 L288.879808,104.601282 Z M268.905449,109.652564 C268.905449,107.54359 270.235577,105.963462 272.216346,105.963462 C273.293269,105.963462 274.258013,106.41859 275.008013,107.312821 L275.008013,112.069231 C274.277244,112.934615 273.3125,113.373718 272.216346,113.373718 C270.235577,113.373718 268.905449,111.758333 268.905449,109.652564 L268.905449,109.652564 Z M276.549679,114.098077 L276.549679,104.80641 L275.046474,104.80641 L275.046474,105.658974 C274.258013,104.979487 273.216346,104.601282 272.043269,104.601282 C269.334936,104.617308 267.328526,106.819231 267.328526,109.652564 C267.328526,112.517949 269.309295,114.761538 272.024038,114.761538 C273.200321,114.761538 274.238782,114.325641 275.008013,113.566026 L275.008013,114.098077 C275.008013,116.142949 273.774038,117.533974 271.754808,117.533974 C270.408654,117.533974 269.386218,116.979487 268.661859,115.899359 L267.44391,116.79359 C268.344551,118.008333 269.655449,118.902564 271.790064,118.902564 C274.889423,118.902564 276.549679,116.944231 276.549679,114.098077 L276.549679,114.098077 Z M260.80609,105.963462 C262.1875,105.963462 263.149038,106.819231 263.149038,108.473077 L263.149038,114.626923 L264.690705,114.626923 L264.690705,108.165385 C264.690705,106.059615 263.309295,104.601282 261.129808,104.601282 C259.879808,104.601282 258.748397,105.069231 257.918269,105.93141 L257.902244,104.80641 L256.395833,104.80641 L256.395833,114.626923 L257.918269,114.626923 L257.918269,107.261538 C258.802885,106.328846 259.863782,105.963462 260.80609,105.963462 L260.80609,105.963462 Z M251.520833,114.630128 L253.043269,114.630128 L253.043269,104.80641 L251.520833,104.80641 L251.520833,114.630128 Z M252.270833,103.001923 C252.870192,103.001923 253.350962,102.54359 253.350962,101.957051 C253.350962,101.373718 252.870192,100.889744 252.270833,100.889744 C251.700321,100.889744 251.213141,101.373718 251.213141,101.957051 C251.213141,102.54359 251.700321,103.001923 252.270833,103.001923 L252.270833,103.001923 Z M240.418269,109.707051 C240.418269,107.54359 241.783654,105.963462 243.786859,105.963462 C244.886218,105.963462 245.866987,106.41859 246.616987,107.312821 L246.616987,112.136538 C245.886218,113.017949 244.902244,113.450641 243.786859,113.450641 C241.783654,113.450641 240.418269,111.838462 240.418269,109.707051 L240.418269,109.707051 Z M246.633013,114.626923 L248.155449,114.626923 L248.155449,100.796795 L246.616987,100.796795 L246.616987,105.646154 C245.831731,104.957051 244.786859,104.601282 243.613782,104.601282 C240.883013,104.617308 238.838141,106.819231 238.838141,109.707051 C238.838141,112.594872 240.863782,114.835256 243.613782,114.835256 C244.786859,114.835256 245.844551,114.399359 246.616987,113.636538 L246.633013,114.626923 Z M232.31891,105.963462 C233.706731,105.963462 234.668269,106.819231 234.668269,108.473077 L234.668269,114.626923 L236.203526,114.626923 L236.203526,108.165385 C236.203526,106.059615 234.822115,104.601282 232.642628,104.601282 C231.392628,104.601282 230.261218,105.069231 229.43109,105.93141 L229.415064,104.80641 L227.911859,104.80641 L227.911859,114.626923 L229.43109,114.626923 L229.43109,107.261538 C230.31891,106.328846 231.376603,105.963462 232.31891,105.963462 L232.31891,105.963462 Z M223.036859,114.630128 L224.55609,114.630128 L224.55609,104.80641 L223.036859,104.80641 L223.036859,114.630128 Z M223.783654,103.001923 C224.383013,103.001923 224.866987,102.54359 224.866987,101.957051 C224.866987,101.373718 224.383013,100.889744 223.783654,100.889744 C223.213141,100.889744 222.729167,101.373718 222.729167,101.957051 C222.729167,102.54359 223.213141,103.001923 223.783654,103.001923 L223.783654,103.001923 Z M213.347756,114.626923 L213.347756,108.495513 L218.908654,108.495513 L218.908654,107.085256 L213.347756,107.085256 L213.347756,102.700641 L220.600962,102.700641 L220.600962,101.328846 L211.713141,101.328846 L211.713141,114.626923 L213.347756,114.626923 Z" id="Finding-cures.-Saving-children."></path>
            <path d="M227.350641,79.1721154 L227.308974,78.2201923 C225.526923,77.9958333 224.216026,77.2971154 222.469231,75.1272436 C220.376282,72.6272436 218.552564,69.2041667 217.132692,66.5182692 C220.491667,65.5599359 222.728846,62.5791667 222.728846,59.2682692 C222.728846,55.1464744 219.408333,51.8355769 213.783333,51.8355769 C211.542949,51.8355769 209.613462,52.0599359 206.103846,52.0599359 C204.802564,52.0919872 203.270513,52.0599359 201.860256,52.0246795 L201.860256,53.3067308 L203.978846,53.5278846 C204.575,53.6016026 204.953205,53.8996795 204.953205,54.5214744 L204.953205,76.5567308 C204.953205,77.4445513 204.575,77.6625 203.978846,77.7362179 L201.860256,77.9573718 L201.860256,79.2426282 L212.70641,79.2426282 L212.70641,77.9573718 L210.725641,77.7009615 C210.241667,77.6272436 209.982051,77.4060897 209.982051,76.8932692 L209.982051,66.9541667 C210.802564,66.9541667 211.658333,66.9958333 212.216026,67.0310897 C213.966026,70.1560897 215.760897,73.7298077 217.921154,76.5567308 C219.748077,78.9862179 221.869872,79.5022436 224.334615,79.5022436 C225.264103,79.5022436 226.417949,79.3195513 227.350641,79.1721154 L227.350641,79.1721154 Z M212.107051,65.1208333 C211.325,65.1208333 210.651923,65.0471154 209.982051,65.0086538 L209.982051,53.9701923 C210.911538,53.8612179 211.882692,53.8612179 212.70641,53.8612179 C215.799359,53.8612179 217.773718,55.8483974 217.773718,59.4862179 C217.773718,63.3900641 215.56859,65.1560897 212.107051,65.1208333 L212.107051,65.1208333 Z M242.222436,76.0086538 L241.363462,74.9733974 C239.837821,75.8612179 238.347436,76.5567308 236.664744,76.5567308 C232.83141,76.5567308 230.626282,72.9894231 230.408333,68.8708333 L241.885897,68.8708333 L241.885897,67.7298077 C241.885897,63.2810897 239.167949,59.9701923 234.732051,59.9701923 C230.703205,59.9701923 226.341026,63.8676282 226.341026,69.938141 C226.341026,76.5567308 230.889103,79.6496795 235.026923,79.6496795 C237.677564,79.6496795 240.696795,77.3708333 242.222436,76.0086538 L242.222436,76.0086538 Z M234.129487,61.8772436 C235.584615,61.8772436 237.600641,62.9157051 238.049359,66.8483974 L230.44359,67.1016026 C230.741667,63.7554487 232.305769,61.8772436 234.129487,61.8772436 L234.129487,61.8772436 Z M257.578205,73.5439103 C257.578205,71.0086538 256.196795,69.2362179 252.802564,68.136859 L250.459615,67.3612179 C247.921154,66.5182692 247.254487,65.4830128 247.254487,64.2009615 C247.254487,62.7298077 248.369872,61.7330128 250.347436,61.7330128 C252.991667,61.7330128 254.075,63.3516026 254.962821,65.7073718 L256.347436,65.7073718 L256.308974,61.1496795 C254.408333,60.3387821 253.142308,59.9701923 251.241667,59.9701923 C247.107051,59.9701923 244.049359,62.5407051 244.049359,65.9637821 C244.049359,68.688141 245.613462,70.3067308 249.151923,71.4445513 L251.2,72.1112179 C253.517308,72.8419872 254.036538,73.9862179 254.036538,75.3451923 C254.036538,76.8932692 252.844231,78.2201923 250.498077,78.2201923 C247.847436,78.2201923 246.728846,76.636859 245.764103,73.5022436 L244.161538,73.5022436 L244.421154,78.5823718 C245.347436,79.0983974 247.552564,79.8355769 249.857051,79.8355769 C253.962821,79.8355769 257.578205,77.5919872 257.578205,73.5439103 L257.578205,73.5439103 Z M275.315385,76.0086538 L274.459615,74.9733974 C272.933974,75.8612179 271.440385,76.5567308 269.764103,76.5567308 C265.924359,76.5567308 263.728846,72.9894231 263.501282,68.8708333 L274.978846,68.8708333 L274.978846,67.7298077 C274.978846,63.2810897 272.264103,59.9701923 267.828205,59.9701923 C263.802564,59.9701923 259.440385,63.8676282 259.440385,69.938141 C259.440385,76.5567308 263.985256,79.6496795 268.126282,79.6496795 C270.770513,79.6496795 273.786538,77.3708333 275.315385,76.0086538 L275.315385,76.0086538 Z M267.225641,61.8772436 C268.683974,61.8772436 270.69359,62.9157051 271.145513,66.8483974 L263.542949,67.1016026 C263.837821,63.7554487 265.401923,61.8772436 267.225641,61.8772436 L267.225641,61.8772436 Z M287.764103,79.8035256 L293.879487,78.8067308 L293.799359,77.7362179 L292.911538,77.6272436 C291.719231,77.4798077 291.235256,76.8580128 291.235256,75.6048077 L291.19359,65.2650641 C291.19359,62.3227564 289.33141,59.8612179 285.344231,59.8612179 C281.837821,59.8612179 277.44359,62.6528846 277.44359,65.4830128 C277.44359,66.188141 277.629487,66.9221154 278.036538,67.4349359 L281.728846,65.9637821 C281.280128,65.1945513 281.094231,64.5695513 281.058974,63.9413462 C281.020513,62.8355769 281.799359,61.9541667 283.517308,61.9541667 C285.344231,61.9541667 286.719231,63.4637821 286.719231,65.1945513 L286.760897,68.4669872 L281.20641,70.4894231 C278.44359,71.4830128 276.841026,73.0663462 276.841026,75.5310897 C276.841026,77.9253205 278.408333,79.8708333 281.648718,79.8708333 C283.251282,79.8708333 285.232051,78.3676282 286.95,77.1112179 C287.020513,78.0342949 287.280128,79.063141 287.764103,79.8035256 L287.764103,79.8035256 Z M281.094231,74.2426282 C281.094231,72.9541667 281.466026,71.8548077 283.292949,71.2650641 L286.760897,70.1560897 L286.799359,75.7522436 C285.494872,76.4894231 284.523718,76.9669872 283.70641,76.9669872 C282.100641,76.9669872 281.094231,75.8259615 281.094231,74.2426282 L281.094231,74.2426282 Z M304.539744,78.0342949 L302.825,77.8099359 C302.299359,77.7362179 301.927564,77.5919872 301.927564,76.8580128 L301.927564,66.7394231 C302.712821,65.1945513 303.940385,63.6464744 305.619872,63.4637821 C306.770513,63.3195513 307.853846,63.7939103 308.786538,64.3804487 L309.866667,60.6304487 C309.046154,59.9701923 307.853846,59.6048077 306.507692,59.7426282 C304.462821,59.9701923 303.123077,61.9541667 301.812179,64.5278846 C301.812179,63.0599359 301.744872,61.0727564 301.520513,60.0439103 L294.661538,61.4413462 L294.735256,62.5086538 L295.959615,62.6176282 C296.972436,62.688141 297.382692,63.3900641 297.382692,64.6432692 L297.382692,76.8580128 C297.382692,77.5919872 297.046154,77.7362179 296.485256,77.8099359 L294.921154,78.0342949 L294.921154,79.2426282 L304.539744,79.2426282 L304.539744,78.0342949 Z M314.078205,68.3580128 C314.078205,63.9766026 316.241667,62.0663462 318.703205,62.0663462 C320.674359,62.0663462 321.978846,62.8355769 323.360256,65.6304487 L324.661538,65.6304487 L324.661538,61.4060897 C323.251282,60.5919872 321.83141,59.9701923 319.334615,59.9701923 C314.754487,59.9701923 309.901923,63.6849359 309.901923,70.1208333 C309.901923,76.636859 314.565385,79.6112179 318.552564,79.6112179 C321.161538,79.6112179 323.805769,77.2233974 325.260897,75.9349359 L324.514103,75.0182692 C323.209615,75.8996795 321.683974,76.5567308 320.113462,76.5567308 C316.241667,76.5567308 314.078205,72.6625 314.078205,68.3580128 L314.078205,68.3580128 Z M335.510897,78.0342949 L333.796154,77.8099359 C333.238462,77.7362179 332.901923,77.5919872 332.901923,76.8580128 L332.901923,64.6080128 C333.796154,63.8323718 335.135897,63.1721154 336.440385,63.1721154 C338.642308,63.1721154 339.754487,64.4573718 339.754487,66.2939103 L339.754487,76.8580128 C339.754487,77.5919872 339.385897,77.7362179 338.866667,77.8099359 L337.334615,78.0342949 L337.334615,79.2426282 L346.578205,79.2426282 L346.578205,78.0342949 L345.203205,77.8099359 C344.642308,77.7362179 344.302564,77.5919872 344.302564,76.8580128 L344.302564,65.4125 C344.302564,62.5791667 342.440385,60.0439103 338.754487,60.0439103 C336.661538,60.0439103 334.504487,61.1849359 332.901923,62.9477564 L332.901923,54.3035256 C332.901923,52.938141 332.975641,51.6913462 333.014103,50.6560897 C331.558974,50.9541667 327.126282,51.761859 325.594231,52.0246795 L325.671154,53.0535256 L327.084615,53.1625 C327.908333,53.2362179 328.353846,53.8996795 328.353846,55.188141 L328.353846,76.8580128 C328.353846,77.5919872 328.017308,77.7362179 327.45641,77.8099359 L326.08141,78.0342949 L326.08141,79.2426282 L335.510897,79.2426282 L335.510897,78.0342949 Z M365.850641,77.9573718 L363.725641,77.7362179 C363.126282,77.6625 362.754487,77.4445513 362.754487,76.5567308 L362.754487,66.6657051 L374.83141,66.6657051 L374.83141,76.5567308 C374.83141,77.4445513 374.45641,77.6625 373.863462,77.7362179 L371.738462,77.9573718 L371.738462,79.2426282 L382.95641,79.2426282 L382.95641,77.9573718 L380.834615,77.7362179 C380.232051,77.6625 379.863462,77.4445513 379.863462,76.5567308 L379.863462,54.7073718 C379.863462,53.8227564 380.232051,53.6016026 380.834615,53.5278846 L382.95641,53.3067308 L382.95641,52.0246795 L371.738462,52.0246795 L371.738462,53.3067308 L373.863462,53.5278846 C374.45641,53.6016026 374.83141,53.8227564 374.83141,54.7073718 L374.83141,64.5695513 L362.754487,64.5695513 L362.754487,54.7073718 C362.754487,53.8227564 363.126282,53.6016026 363.725641,53.5278846 L365.850641,53.3067308 L365.850641,52.0246795 L354.632692,52.0246795 L354.632692,53.3067308 L356.754487,53.5278846 C357.350641,53.6016026 357.725641,53.8227564 357.725641,54.7073718 L357.725641,76.5567308 C357.725641,77.4445513 357.350641,77.6625 356.754487,77.7362179 L354.632692,77.9573718 L354.632692,79.2426282 L365.850641,79.2426282 L365.850641,77.9573718 Z M383.95641,70.1945513 C383.95641,75.6785256 387.575,79.7233974 392.94359,79.7233974 C398.536538,79.7233974 402.632692,74.9413462 402.632692,69.4958333 C402.632692,64.0535256 398.946795,59.9701923 393.575,59.9701923 C387.982051,59.9701923 383.95641,64.7907051 383.95641,70.1945513 L383.95641,70.1945513 Z M398.049359,70.1208333 C398.049359,74.9733974 396.183974,77.7714744 393.507692,77.7714744 C390.632692,77.7714744 388.546154,74.6112179 388.546154,69.5727564 C388.546154,64.7522436 390.337821,61.9189103 393.091026,61.9189103 C395.885897,61.9189103 398.049359,65.1208333 398.049359,70.1208333 L398.049359,70.1208333 Z M418.286538,73.5439103 C418.286538,71.0086538 416.914744,69.2362179 413.517308,68.136859 L411.171154,67.3612179 C408.632692,66.5182692 407.969231,65.4830128 407.969231,64.2009615 C407.969231,62.7298077 409.078205,61.7330128 411.058974,61.7330128 C413.703205,61.7330128 414.783333,63.3516026 415.680769,65.7073718 L417.055769,65.7073718 L417.020513,61.1496795 C415.119872,60.3387821 413.853846,59.9701923 411.953205,59.9701923 C407.81859,59.9701923 404.760897,62.5407051 404.760897,65.9637821 C404.760897,68.688141 406.328205,70.3067308 409.863462,71.4445513 L411.911538,72.1112179 C414.228846,72.8419872 414.748077,73.9862179 414.748077,75.3451923 C414.748077,76.8932692 413.555769,78.2201923 411.203205,78.2201923 C408.562179,78.2201923 407.440385,76.636859 406.475641,73.5022436 L404.876282,73.5022436 L405.132692,78.5823718 C406.065385,79.0983974 408.260897,79.8355769 410.578205,79.8355769 C414.674359,79.8355769 418.286538,77.5919872 418.286538,73.5439103 L418.286538,73.5439103 Z M429.613462,87.1176282 L427.716026,86.8996795 C427.158333,86.8259615 426.821795,86.6785256 426.821795,85.9413462 L426.821795,79.063141 C427.754487,79.4669872 428.725641,79.6913462 429.805769,79.6913462 C434.799359,79.6913462 439.719231,75.386859 439.719231,69.2041667 C439.719231,63.5375 436.369872,60.0086538 432.116667,60.0086538 C430.06859,60.0086538 428.132692,61.1080128 426.671154,62.5407051 C426.639103,61.6176282 426.523718,60.6304487 426.411538,60.0439103 L419.555769,61.4413462 L419.626282,62.5086538 L420.671154,62.6176282 C421.796154,62.7298077 422.276923,63.3900641 422.276923,64.6432692 L422.276923,85.9413462 C422.276923,86.6785256 421.94359,86.8259615 421.379487,86.8996795 L419.815385,87.1176282 L419.815385,88.3291667 L429.613462,88.3291667 L429.613462,87.1176282 Z M430.103846,62.9862179 C433.196795,62.9862179 435.244872,65.7426282 435.244872,70.0503205 C435.244872,75.2330128 432.642308,77.5919872 430.026923,77.5919872 C428.799359,77.5919872 427.754487,77.188141 426.821795,76.4445513 L426.821795,64.2330128 C427.680769,63.5375 428.873077,62.9862179 430.103846,62.9862179 L430.103846,62.9862179 Z M448.629487,54.0823718 C448.629487,52.6496795 447.437179,51.3227564 445.834615,51.3227564 C444.228846,51.3227564 443.036538,52.6496795 443.036538,54.0823718 C443.036538,55.5182692 444.228846,56.8387821 445.834615,56.8387821 C447.437179,56.8387821 448.629487,55.5182692 448.629487,54.0823718 L448.629487,54.0823718 Z M450.639103,79.2426282 L450.639103,78.0342949 L449.075,77.8099359 C448.517308,77.7362179 448.180769,77.5919872 448.180769,76.8580128 L448.180769,63.5759615 C448.180769,62.2490385 448.209615,60.9958333 448.292949,59.9701923 C446.834615,60.3003205 442.405128,61.1496795 440.914744,61.4413462 L440.985256,62.5086538 L442.363462,62.6176282 C443.296154,62.688141 443.632692,63.4285256 443.632692,64.6080128 L443.632692,76.8580128 C443.632692,77.5919872 443.296154,77.7362179 442.741667,77.8099359 L441.171154,78.0342949 L441.171154,79.2426282 L450.639103,79.2426282 Z M463.270513,77.5919872 L462.863462,76.4894231 C461.969231,76.8163462 461.151923,77.0054487 460.328205,77.0054487 C459.135897,77.0054487 458.203205,76.5214744 458.244872,74.0599359 L458.244872,62.8772436 L462.901923,62.8772436 L462.901923,60.7778846 L458.244872,60.7778846 L458.244872,55.8483974 L453.658333,57.9092949 L453.658333,60.7778846 L451.014103,60.7778846 L451.014103,62.8772436 L453.658333,62.8772436 L453.658333,74.6464744 C453.658333,77.1112179 454.81859,79.5407051 458.31859,79.5407051 C459.475641,79.5407051 460.773718,79.0246795 463.270513,77.5919872 L463.270513,77.5919872 Z M475.466026,79.8035256 L481.575,78.8067308 L481.504487,77.7362179 L480.607051,77.6272436 C479.414744,77.4798077 478.927564,76.8580128 478.927564,75.6048077 L478.889103,65.2650641 C478.889103,62.3227564 477.026923,59.8612179 473.036538,59.8612179 C469.536538,59.8612179 465.135897,62.6528846 465.135897,65.4830128 C465.135897,66.188141 465.325,66.9221154 465.732051,67.4349359 L469.424359,65.9637821 C468.978846,65.1945513 468.789744,64.5695513 468.751282,63.9413462 C468.716026,62.8355769 469.498077,61.9541667 471.212821,61.9541667 C473.036538,61.9541667 474.421154,63.4637821 474.421154,65.1945513 L474.45641,68.4669872 L468.905128,70.4894231 C466.148718,71.4830128 464.542949,73.0663462 464.542949,75.5310897 C464.542949,77.9253205 466.107051,79.8708333 469.350641,79.8708333 C470.95641,79.8708333 472.927564,78.3676282 474.639103,77.1112179 C474.712821,78.0342949 474.975641,79.063141 475.466026,79.8035256 L475.466026,79.8035256 Z M468.789744,74.2426282 C468.789744,72.9541667 469.161538,71.8548077 470.991667,71.2650641 L474.45641,70.1560897 L474.488462,75.7522436 C473.190385,76.4894231 472.219231,76.9669872 471.398718,76.9669872 C469.796154,76.9669872 468.789744,75.8259615 468.789744,74.2426282 L468.789744,74.2426282 Z M489.626282,76.8580128 L489.626282,54.3035256 C489.626282,52.938141 489.7,51.6913462 489.738462,50.6560897 C488.283333,50.9541667 483.844231,51.761859 482.321795,52.0246795 L482.392308,53.0535256 L483.808974,53.1625 C484.629487,53.2362179 485.08141,53.8996795 485.08141,55.188141 L485.08141,76.8580128 C485.08141,77.5919872 484.744872,77.7362179 484.183974,77.8099359 L482.616667,78.0342949 L482.616667,79.2426282 L492.049359,79.2426282 L492.049359,78.0342949 L490.514103,77.8099359 C489.962821,77.7362179 489.626282,77.5919872 489.626282,76.8580128 L489.626282,76.8580128 Z" id="Research-Hospital"></path>
            <path d="M221.388141,32.2410256 C221.388141,28.7089744 220.006731,26.2826923 214.679808,24.5519231 L211.250321,23.4525641 C208.083654,22.4205128 207.038782,20.9108974 207.038782,18.7762821 C207.038782,16.2025641 208.939423,14.6576923 211.881731,14.6576923 C214.827244,14.6576923 216.801603,15.9076923 217.997115,19.9173077 L219.4875,19.9173077 L219.4875,14.2185897 C217.247115,13.1865385 215.125321,12.5551282 212.477885,12.5551282 C207.336859,12.5551282 203.381731,15.8339744 203.381731,20.7634615 C203.381731,24.3339744 205.029167,26.7955128 210.131731,28.4141026 L213.150962,29.3692308 C216.465064,30.4397436 217.506731,31.9846154 217.506731,34.3051282 C217.506731,36.6961538 215.574038,38.6801282 211.99391,38.6801282 C208.195833,38.6801282 206.442628,37.2826923 205.250321,32.9461538 L203.535577,32.9461538 L203.574038,39.0519231 C206.699038,40.2666667 208.827244,40.7057692 211.548397,40.7057692 C216.9875,40.7057692 221.388141,37.324359 221.388141,32.2410256 L221.388141,32.2410256 Z M234.689423,38.5711538 L234.282372,37.4685897 C233.388141,37.7955128 232.567628,37.9814103 231.750321,37.9814103 C230.558013,37.9814103 229.622115,37.500641 229.660577,35.0358974 L229.660577,23.8564103 L234.320833,23.8564103 L234.320833,21.7570513 L229.660577,21.7570513 L229.660577,16.824359 L225.074038,18.8852564 L225.074038,21.7570513 L222.433013,21.7570513 L222.433013,23.8564103 L225.074038,23.8564103 L225.074038,35.625641 C225.074038,38.0903846 226.23109,40.5230769 229.7375,40.5230769 C230.891346,40.5230769 232.195833,40.0038462 234.689423,38.5711538 L234.689423,38.5711538 Z M242.109295,37.8724359 C242.109295,36.475 240.99391,35.2217949 239.423397,35.2217949 C237.859295,35.2217949 236.74391,36.475 236.74391,37.8724359 C236.74391,39.2666667 237.859295,40.5230769 239.423397,40.5230769 C240.99391,40.5230769 242.109295,39.2666667 242.109295,37.8724359 L242.109295,37.8724359 Z M257.205449,15.6865385 C257.205449,14.8019231 257.577244,14.5839744 258.208654,14.5070513 L260.304808,14.2891026 L260.304808,13.0038462 L248.929808,13.0038462 L248.929808,14.2891026 L251.279167,14.475 C251.766346,14.5070513 251.984295,14.7698718 251.984295,15.3179487 L251.984295,39.8211538 C251.984295,44.2730769 250.11891,46.3692308 246.471474,47.7666667 L246.990705,48.9108974 C253.327244,47.9878205 257.205449,44.7858974 257.205449,38.2762821 L257.205449,15.6865385 Z M275.019551,40.7794872 L281.429808,39.7826923 L281.352885,38.7185897 L280.423397,38.6064103 C279.23109,38.4589744 278.747115,37.8371795 278.747115,36.5807692 L278.747115,24.5519231 C278.747115,23.225 278.782372,21.9814103 278.85609,20.9461538 L271.48109,22.4205128 L271.554808,23.4878205 L272.933013,23.6 C273.8625,23.6737179 274.199038,24.4044872 274.199038,25.5839744 L274.199038,36.5807692 C273.269551,37.324359 272.077244,37.8724359 270.955449,37.8724359 C268.756731,37.8724359 267.638141,36.5134615 267.638141,34.5615385 L267.638141,24.5519231 C267.638141,23.225 267.673397,21.9814103 267.750321,20.9461538 L260.375321,22.4205128 L260.449038,23.4878205 L261.820833,23.6 C262.756731,23.6737179 263.090064,24.4044872 263.090064,25.5839744 L263.090064,35.8852564 C263.090064,38.4237179 264.99391,40.8916667 268.497115,40.8916667 C270.436218,40.8916667 272.747115,39.6384615 274.381731,38.0519231 C274.465064,39.0134615 274.686218,40.0423077 275.019551,40.7794872 L275.019551,40.7794872 Z M302.824038,39.7826923 L302.750321,38.7185897 L301.670192,38.6064103 C300.474679,38.4974359 299.990705,37.8371795 299.990705,36.5807692 L299.990705,15.2826923 C299.990705,13.9205128 300.067628,12.6673077 300.10609,11.6416667 L292.500321,13.0038462 L292.574038,14.0358974 L294.176603,14.1416667 C294.997115,14.2185897 295.445833,14.8788462 295.445833,16.1641026 L295.445833,21.6096154 C294.509936,21.2057692 293.541987,20.9846154 292.465064,20.9846154 C287.468269,20.9846154 282.548397,25.2923077 282.548397,31.4685897 C282.548397,37.1320513 285.900962,40.6705128 290.154167,40.6705128 C292.202244,40.6705128 294.176603,39.5262821 295.628526,38.0903846 C295.705449,39.0134615 295.926603,40.0807692 296.263141,40.7794872 L302.824038,39.7826923 Z M287.022756,30.6224359 C287.022756,25.4365385 289.628526,23.0839744 292.2375,23.0839744 C293.468269,23.0839744 294.509936,23.4878205 295.445833,24.225 L295.445833,36.4365385 C294.583654,37.1320513 293.394551,37.6897436 292.163782,37.6897436 C289.070833,37.6897436 287.022756,34.9301282 287.022756,30.6224359 L287.022756,30.6224359 Z M319.8625,36.9846154 L319.000321,35.9589744 C317.471474,36.8435897 315.98109,37.5391026 314.301603,37.5391026 C310.461859,37.5391026 308.266346,33.9717949 308.041987,29.85 L319.519551,29.85 L319.519551,28.7089744 C319.519551,24.2602564 316.801603,20.9461538 312.365705,20.9461538 C308.340064,20.9461538 303.98109,24.8435897 303.98109,30.9173077 C303.98109,37.5391026 308.525962,40.6320513 312.666987,40.6320513 C315.311218,40.6320513 318.330449,38.35 319.8625,36.9846154 L319.8625,36.9846154 Z M311.766346,22.8628205 C313.221474,22.8628205 315.234295,23.8916667 315.683013,27.8275641 L308.080449,28.0903846 C308.375321,24.7346154 309.942628,22.8628205 311.766346,22.8628205 L311.766346,22.8628205 Z M352.468269,38.5326923 L352.541987,32.6096154 L350.827244,32.6096154 C349.74391,37.0230769 348.365705,38.6064103 343.558013,38.6064103 C337.968269,38.6064103 333.977885,33.9333333 333.830449,26.574359 C333.683013,19.2923077 337.596474,14.5423077 343.333654,14.5423077 C347.436218,14.5423077 349.378526,16.2410256 350.567628,20.2089744 L352.282372,20.2089744 L352.170192,14.3628205 C349.817628,13.4076923 347.436218,12.5198718 343.900962,12.5198718 C334.577244,12.5198718 328.202244,18.7762821 328.202244,26.9461538 C328.202244,34.9301282 334.090064,40.7442308 343.333654,40.7442308 C346.875321,40.7442308 349.077244,40.0807692 352.468269,38.5326923 L352.468269,38.5326923 Z M364.471474,39.0134615 L362.756731,38.7955128 C362.199038,38.7185897 361.859295,38.5711538 361.859295,37.8371795 L361.859295,25.5839744 C362.756731,24.8115385 364.093269,24.1480769 365.397756,24.1480769 C367.599679,24.1480769 368.715064,25.4365385 368.715064,27.2762821 L368.715064,37.8371795 C368.715064,38.5711538 368.346474,38.7185897 367.824038,38.7955128 L366.298397,39.0134615 L366.298397,40.225 L375.538782,40.225 L375.538782,39.0134615 L374.160577,38.7955128 C373.602885,38.7185897 373.263141,38.5711538 373.263141,37.8371795 L373.263141,26.3916667 C373.263141,23.5615385 371.400962,21.0230769 367.711859,21.0230769 C365.622115,21.0230769 363.461859,22.1608974 361.859295,23.9301282 L361.859295,15.2826923 C361.859295,13.9205128 361.936218,12.6673077 361.971474,11.6416667 C360.516346,11.9333333 356.080449,12.7442308 354.551603,13.0038462 L354.628526,14.0358974 L356.041987,14.1416667 C356.86891,14.2185897 357.311218,14.8788462 357.311218,16.1641026 L357.311218,37.8371795 C357.311218,38.5711538 356.977885,38.7185897 356.420192,38.7955128 L355.038782,39.0134615 L355.038782,40.225 L364.471474,40.225 L364.471474,39.0134615 Z M384.407372,15.0615385 C384.407372,13.6224359 383.218269,12.3019231 381.615705,12.3019231 C380.009936,12.3019231 378.820833,13.6224359 378.820833,15.0615385 C378.820833,16.4974359 380.009936,17.824359 381.615705,17.824359 C383.218269,17.824359 384.407372,16.4974359 384.407372,15.0615385 L384.407372,15.0615385 Z M386.423397,40.225 L386.423397,39.0134615 L384.859295,38.7955128 C384.291987,38.7185897 383.958654,38.5711538 383.958654,37.8371795 L383.958654,24.5519231 C383.958654,23.225 384.000321,21.9814103 384.074038,20.9461538 C382.61891,21.2794872 378.183013,22.1288462 376.692628,22.4205128 L376.769551,23.4878205 L378.144551,23.6 C379.080449,23.6737179 379.413782,24.4044872 379.413782,25.5839744 L379.413782,37.8371795 C379.413782,38.5711538 379.080449,38.7185897 378.519551,38.7955128 L376.955449,39.0134615 L376.955449,40.225 L386.423397,40.225 Z M394.61891,37.8371795 L394.61891,15.2826923 C394.61891,13.9205128 394.695833,12.6673077 394.734295,11.6416667 C393.279167,11.9333333 388.843269,12.7442308 387.317628,13.0038462 L387.388141,14.0358974 L388.808013,14.1416667 C389.625321,14.2185897 390.074038,14.8788462 390.074038,16.1641026 L390.074038,37.8371795 C390.074038,38.5711538 389.740705,38.7185897 389.186218,38.7955128 L387.6125,39.0134615 L387.6125,40.225 L397.041987,40.225 L397.041987,39.0134615 L395.516346,38.7955128 C394.955449,38.7185897 394.61891,38.5711538 394.61891,37.8371795 L394.61891,37.8371795 Z M418.846474,39.7826923 L418.772756,38.7185897 L417.692628,38.6064103 C416.500321,38.4974359 416.016346,37.8371795 416.016346,36.5807692 L416.016346,15.2826923 C416.016346,13.9205128 416.090064,12.6673077 416.125321,11.6416667 L408.522756,13.0038462 L408.599679,14.0358974 L410.199038,14.1416667 C411.019551,14.2185897 411.468269,14.8788462 411.468269,16.1641026 L411.468269,21.6096154 C410.535577,21.2057692 409.564423,20.9846154 408.4875,20.9846154 C403.490705,20.9846154 398.567628,25.2923077 398.567628,31.4685897 C398.567628,37.1320513 401.926603,40.6705128 406.176603,40.6705128 C408.224679,40.6705128 410.199038,39.5262821 411.654167,38.0903846 C411.73109,39.0134615 411.952244,40.0807692 412.288782,40.7794872 L418.846474,39.7826923 Z M403.041987,30.6224359 C403.041987,25.4365385 405.650962,23.0839744 408.263141,23.0839744 C409.490705,23.0839744 410.535577,23.4878205 411.468269,24.225 L411.468269,36.4365385 C410.609295,37.1320513 409.413782,37.6897436 408.183013,37.6897436 C405.090064,37.6897436 403.041987,34.9301282 403.041987,30.6224359 L403.041987,30.6224359 Z M429.285577,39.0134615 L427.570833,38.7955128 C427.045192,38.7185897 426.673397,38.5711538 426.673397,37.8371795 L426.673397,27.7153846 C427.455449,26.1673077 428.686218,24.625641 430.365705,24.4397436 C431.519551,24.2955128 432.599679,24.7730769 433.532372,25.3596154 L434.6125,21.6096154 C433.795192,20.9461538 432.599679,20.5807692 431.256731,20.7282051 C429.208654,20.9461538 427.86891,22.9333333 426.561218,25.5070513 C426.561218,24.0358974 426.4875,22.0487179 426.263141,21.0230769 L419.407372,22.4205128 L419.48109,23.4878205 L420.708654,23.6 C421.718269,23.6737179 422.125321,24.3692308 422.125321,25.6192308 L422.125321,37.8371795 C422.125321,38.5711538 421.788782,38.7185897 421.234295,38.7955128 L419.666987,39.0134615 L419.666987,40.225 L429.285577,40.225 L429.285577,39.0134615 Z M450.529167,36.9846154 L449.670192,35.9589744 C448.141346,36.8435897 446.650962,37.5391026 444.974679,37.5391026 C441.141346,37.5391026 438.936218,33.9717949 438.715064,29.85 L450.189423,29.85 L450.189423,28.7089744 C450.189423,24.2602564 447.471474,20.9461538 443.038782,20.9461538 C439.009936,20.9461538 434.650962,24.8435897 434.650962,30.9173077 C434.650962,37.5391026 439.195833,40.6320513 443.333654,40.6320513 C445.984295,40.6320513 448.997115,38.35 450.529167,36.9846154 L450.529167,36.9846154 Z M442.436218,22.8628205 C443.894551,22.8628205 445.907372,23.8916667 446.352885,27.8275641 L438.750321,28.0903846 C439.048397,24.7346154 440.6125,22.8628205 442.436218,22.8628205 L442.436218,22.8628205 Z M461.333654,39.0134615 L459.804808,38.7955128 C459.285577,38.7185897 458.913782,38.5711538 458.913782,37.8371795 L458.913782,25.5839744 C459.804808,24.8115385 461.147756,24.1480769 462.455449,24.1480769 C464.650962,24.1480769 465.769551,25.4365385 465.769551,27.2762821 L465.769551,37.8371795 C465.769551,38.5711538 465.400962,38.7185897 464.881731,38.7955128 L463.352885,39.0134615 L463.352885,40.225 L472.785577,40.225 L472.785577,39.0134615 L471.211859,38.7955128 C470.654167,38.7185897 470.317628,38.5711538 470.317628,37.8371795 L470.317628,26.3916667 C470.317628,23.5615385 468.452244,21.0230769 464.6125,21.0230769 C462.599679,21.0230769 460.407372,22.2378205 458.801603,24.0775641 C458.769551,23.0102564 458.650962,21.7185897 458.506731,21.0230769 L451.644551,22.4205128 L451.718269,23.4878205 L452.949038,23.6 C453.958654,23.6737179 454.36891,24.3692308 454.36891,25.6192308 L454.36891,37.8371795 C454.36891,38.5711538 454.035577,38.7185897 453.468269,38.7955128 L451.904167,39.0134615 L451.904167,40.225 L461.333654,40.225 L461.333654,39.0134615 Z M475.054808,19.1480769 C475.054808,20.2891026 474.192628,21.3147436 472.852885,22.4557692 L473.596474,23.1192308 C476.170192,21.2410256 478.183013,18.9942308 478.183013,16.0935897 C478.183013,14.1416667 476.840064,13.074359 475.423397,13.074359 C472.891346,13.074359 472.365705,15.8339744 472.699038,16.824359 C474.11891,17.3051282 475.054808,17.8948718 475.054808,19.1480769 L475.054808,19.1480769 Z M491.227885,34.5262821 C491.227885,31.9846154 489.846474,30.2217949 486.455449,29.1128205 L484.109295,28.3467949 C481.574038,27.4974359 480.907372,26.4685897 480.907372,25.1801282 C480.907372,23.7089744 482.019551,22.7153846 484.003526,22.7153846 C486.641346,22.7153846 487.721474,24.3339744 488.622115,26.6833333 L490.003526,26.6833333 L489.955449,22.1288462 C488.054808,21.3147436 486.788782,20.9461538 484.888141,20.9461538 C480.756731,20.9461538 477.699038,23.5198718 477.699038,26.9461538 C477.699038,29.6705128 479.263141,31.2891026 482.808013,32.4269231 L484.85609,33.0903846 C487.166987,33.824359 487.686218,34.9653846 487.686218,36.324359 C487.686218,37.8724359 486.490705,39.1961538 484.147756,39.1961538 C481.497115,39.1961538 480.381731,37.6160256 479.413782,34.4846154 L477.811218,34.4846154 L478.070833,39.5647436 C479.000321,40.0807692 481.202244,40.8147436 483.513141,40.8147436 C487.615705,40.8147436 491.227885,38.5711538 491.227885,34.5262821 L491.227885,34.5262821 Z" id="St.-Jude-Children's"></path>
            <path d="M493.470192,0.00192307692 C496.704167,0.00192307692 499.242628,2.51474359 499.242628,5.72948718 C499.242628,8.94102564 496.704167,11.4570513 493.470192,11.4570513 C490.245833,11.4570513 487.726603,8.94102564 487.726603,5.72948718 C487.726603,2.51474359 490.245833,0.00192307692 493.470192,0.00192307692 Z M493.470192,1.00192308 C490.835577,1.00192308 488.858013,3.03076923 488.858013,5.72948718 C488.858013,8.425 490.835577,10.4570513 493.470192,10.4570513 C496.133654,10.4570513 498.140064,8.425 498.140064,5.72948718 C498.140064,3.03076923 496.133654,1.00192308 493.470192,1.00192308 Z M493.850321,3.03205128 C494.866346,3.03205128 495.523397,3.63141026 495.523397,4.56410256 C495.523397,5.125 495.180449,5.63461538 494.5875,5.95833333 L494.5875,5.95833333 L494.520192,5.99038462 L495.936859,8.36858974 L494.776603,8.36858974 L493.507372,6.18269231 L492.513782,6.18269231 L492.513782,8.36858974 L491.443269,8.36858974 L491.443269,3.03205128 Z M493.641987,3.79487179 L492.513782,3.79487179 L492.513782,5.41987179 L493.5875,5.41987179 C494.202885,5.41987179 494.481731,5.01602564 494.481731,4.62179487 C494.481731,4.12179487 494.151603,3.79487179 493.641987,3.79487179 L493.641987,3.79487179 Z" id="Trademark"></path>
            <path d="M145.522756,125.8 L145.468269,125.735897 C148.609295,121.210256 152.929808,115.405769 154.474679,114.328846 C154.583654,114.277564 154.660577,114.248718 154.785577,114.191026 C159.455449,113.921795 162.074038,112.29359 162.763141,111.796795 C163.644551,111.16859 166.227885,108.662179 166.654167,108.203846 C167.093269,107.735897 168.436218,104.707051 168.98109,103.43141 L168.98109,103.43141 L168.920192,103.537179 L169.141346,103.030769 L169.176603,102.896154 L169.529167,101.796795 C169.516346,101.460256 169.336859,101.171795 169.048397,101.014744 C168.833654,100.902564 168.574038,100.902564 168.298397,100.93141 C168.311218,100.902564 168.320833,100.864103 168.320833,100.864103 C168.4875,100.514744 168.666987,100.053205 168.666987,99.7358974 L168.666987,99.6557692 C168.61891,99.3064103 168.426603,99.024359 168.122115,98.8512821 C167.811218,98.6814103 167.400962,98.6910256 166.977885,98.7871795 C166.759936,98.5083333 166.535577,98.3384615 166.474679,98.3160256 C166.384936,98.2519231 165.872115,98.0724359 164.926603,98.6429487 C164.558013,98.8544872 164.189423,99.2551282 163.888141,99.6269231 C163.926603,99.3384615 163.965064,99.0467949 163.965064,99.0467949 C163.881731,98.7326923 163.644551,98.4794872 163.327244,98.3576923 C162.878526,98.1910256 162.314423,98.3 161.763141,98.6589744 C161.170192,99.0628205 160.365705,100.322436 160.138141,100.697436 C159.939423,100.860897 159.144551,101.55 158.673397,102.364103 C157.147756,102.854487 156.199038,102.828846 155.804808,102.675 C156.727885,102.139744 157.461859,101.630128 157.8625,101.162179 C158.769551,100.075641 159.275962,98.9282051 159.275962,97.9987179 C159.275962,97.8416667 159.263141,97.6878205 159.2375,97.5371795 C159.144551,97.1076923 158.913782,96.774359 158.580449,96.6076923 C157.663782,96.149359 156.570833,97.0724359 156.3625,97.2647436 C156.346474,97.2903846 156.041987,97.6076923 155.872115,97.7871795 C155.535577,97.8673077 154.804808,98.0884615 154.327244,98.5083333 C153.990705,98.8064103 153.590064,98.9410256 153.122115,99.0980769 C152.554808,99.2871795 151.923397,99.5051282 151.298397,100.033974 L151.253526,100.069231 C151.266346,100.059615 151.279167,100.05 151.295192,100.040385 C151.183013,100.120513 150.176603,100.787179 149.865705,100.998718 C148.423397,101.755128 147.657372,102.511538 146.840064,103.319231 C145.218269,104.928205 143.186218,106.925 134.093269,109.934615 C134.016346,106.604487 131.961859,97.6621795 131.548397,94.2391026 C130.708654,88.1974359 123.692628,79.8737179 118.654167,74.6076923 C123.410577,77.3705128 126.070833,77.7551282 128.686218,74.1942308 C129.378526,73.1173077 130.468269,74.2775641 131.455449,74.0884615 C132.891346,73.3384615 132.705449,72.9378205 132.705449,71.8961538 C133.128526,70.7807692 134.259936,71.3320513 135.099679,71.1942308 C137.215064,70.8448718 135.958654,68.6237179 136.782372,67.5083333 C146.099679,66.950641 135.599679,58.3929487 141.8625,54.8480769 C145.945833,52.950641 147.484295,50.4121795 149.301603,47.9570513 C150.801603,45.9346154 151.115705,47.5147436 152.240705,45.8544872 C154.266346,38.5596154 150.766346,29.5628205 146.253526,23.3737179 C123.144551,-6.33141026 96.7599359,7.36410256 89.0676282,25.7615385 C85.8849359,30.4378205 86.8689103,37.2358974 86.6894231,42.825641 C86.0900641,44.7679487 84.9233974,44.7166667 83.2471154,43.5660256 C82.8657051,47.4185897 85.8785256,48.1846154 87.2150641,48.4410256 C87.3560897,48.9410256 88.2342949,49.6846154 88.6028846,50.200641 C87.3977564,50.5467949 84.8817308,49.8512821 84.0612179,49.4089744 C84.0259615,50.2807692 84.1349359,50.9987179 84.8336538,51.8 C85.388141,54.5467949 86.7823718,55.5179487 88.7759615,56.3288462 C92.4810897,57.8320513 90.7407051,62.9121795 90.3048077,64.9987179 C90.1701923,65.4602564 90.0291667,65.9217949 89.9041667,66.3608974 C86.4842949,67.2391026 84.1990385,70.3416667 83.2887821,73.5564103 C82.8689103,81.3576923 78.8464744,87.8320513 78.9169872,95.9025641 C78.9169872,95.9025641 78.8464744,97.0852564 78.9169872,97.5660256 C80.9169872,106.3 78.3625,117.745513 78.7823718,126.745513 C49.6509615,131.088462 22.8528846,140.447436 0.00032051282,153.620513 C33.8913462,139.992308 73.4362179,132.142949 115.695833,132.142949 C157.958654,132.142949 197.503526,139.992308 231.394551,153.620513 C206.695833,139.389744 177.400962,129.604487 145.522756,125.8 M120.179808,98.6814103 C120.013141,99.149359 119.538782,99.1846154 119.538782,99.1846154 C111.333654,99.450641 104.308013,102.755128 98.6605769,109.011538 C98.6605769,109.011538 98.0291667,109.623718 96.4330128,108.373718 C95.211859,107.41859 95.6573718,106.415385 95.6573718,106.415385 C97.8336538,100.944231 103.439423,97.3352564 112.301603,95.6974359 L112.561218,95.6589744 C114.375321,95.4121795 118.596474,94.825641 120.035577,97.6621795 C120.035577,97.6621795 120.343269,98.2102564 120.179808,98.6814103" id="Child-Logo"></path>
        </g>
    </g>
</svg>