<?xml version="1.0" encoding="utf-8"?>
<!-- Generator: Adobe Illustrator 24.0.1, SVG Export Plug-In . SVG Version: 6.00 Build 0)  -->
<svg version="1.1" id="Layer_1" xmlns="http://www.w3.org/2000/svg" xmlns:xlink="http://www.w3.org/1999/xlink" x="0px" y="0px"
	 viewBox="0 0 470 470" style="enable-background:new 0 0 470 470;" xml:space="preserve">
<style type="text/css">
	.st0{fill:#FFFFFF;}
</style>
<path class="st0" d="M311.47,356.64c6.95-9.78,14.51-19.67,17.62-21.86c0.26-0.12,0.47-0.21,0.78-0.35
	c11.76-0.68,18.37-4.83,20.12-6.1c2.22-1.62,8.72-8.01,9.8-9.18c1.13-1.2,4.48-8.93,5.87-12.18l-0.16,0.28l0.54-1.29l0.1-0.33
	l0.9-2.82c-0.03-0.87-0.49-1.6-1.23-2.02c-0.52-0.28-1.18-0.28-1.86-0.21c0.02-0.07,0.03-0.17,0.03-0.17
	c0.42-0.89,0.89-2.07,0.89-2.88c0-0.07,0-0.14-0.02-0.19c-0.12-0.9-0.61-1.63-1.37-2.07c-0.76-0.43-1.81-0.4-2.88-0.17
	c-0.54-0.7-1.09-1.13-1.25-1.2c-0.23-0.16-1.53-0.64-3.91,0.83c-0.9,0.56-1.84,1.56-2.61,2.5c0.09-0.73,0.19-1.46,0.19-1.46
	c-0.21-0.82-0.8-1.46-1.6-1.77c-1.13-0.42-2.55-0.14-3.93,0.78c-1.53,1.03-3.55,4.24-4.12,5.2c-0.5,0.42-2.5,2.15-3.7,4.26
	c-3.86,1.25-6.22,1.18-7.23,0.8c2.35-1.36,4.21-2.66,5.2-3.88c2.29-2.76,3.58-5.68,3.58-8.06c0-0.42-0.03-0.8-0.12-1.18
	c-0.23-1.11-0.8-1.95-1.63-2.38c-2.33-1.18-5.06,1.18-5.58,1.69c-0.05,0.05-0.8,0.87-1.23,1.34c-0.85,0.21-2.69,0.75-3.89,1.84
	c-0.83,0.75-1.86,1.09-3.04,1.49c-1.42,0.49-3.01,1.06-4.59,2.4l-0.03,0.02c-0.35,0.24-2.8,1.91-3.58,2.45
	c-3.63,1.93-5.58,3.86-7.63,5.93c-4.08,4.1-9.21,9.21-32.15,16.89c-0.19-8.52-5.37-31.35-6.41-40.07
	c-2.12-15.45-19.78-36.68-32.5-50.12c11.99,7.04,18.7,8.03,25.3-1.08c1.76-2.75,4.48,0.23,6.97-0.26c3.63-1.91,3.16-2.94,3.16-5.61
	c1.06-2.83,3.91-1.43,6.03-1.77c5.34-0.9,2.15-6.59,4.28-9.42c23.46-1.41-3.02-23.25,12.81-32.32c10.27-4.85,14.15-11.33,18.73-17.6
	c3.79-5.16,4.57-1.13,7.4-5.37c5.11-18.61-3.72-41.6-15.08-57.4c-58.25-75.85-124.76-40.89-144.15,6.1
	c-8.03,11.94-5.54,29.3-5.98,43.58c-1.51,4.95-4.45,4.83-8.69,1.89c-0.96,9.85,6.64,11.8,10.03,12.44c0.35,1.27,2.55,3.2,3.49,4.48
	c-3.02,0.9-9.38-0.87-11.45-2.02c-0.09,2.22,0.19,4.07,1.96,6.12c1.39,7,4.92,9.49,9.92,11.56c9.35,3.84,4.97,16.82,3.86,22.16
	c-0.35,1.18-0.7,2.35-1.01,3.48c-8.64,2.24-14.39,10.17-16.7,18.39c-1.06,19.9-11.19,36.42-11.02,57.05c0,0-0.17,3.02,0,4.26
	c4.57,20.25-0.3,46.17-0.43,68c-51.04,10.01-98.12,27.77-138.97,51.65c68.89-28.07,149.28-44.24,235.18-44.24
	c85.62,0,165.79,16.07,234.52,43.98v-0.12C423.15,384.64,369.61,365.68,311.47,356.64z M242.63,294.81c-0.42,1.2-1.6,1.3-1.6,1.3
	c-20.7,0.68-38.41,9.12-52.64,25.09c0,0-1.6,1.56-5.61-1.63c-3.08-2.43-1.95-5-1.95-5c5.49-13.97,19.6-23.18,41.95-27.37l0.66-0.1
	c4.55-0.64,15.21-2.12,18.82,5.13C242.27,292.22,243.05,293.61,242.63,294.81z"/>
</svg>
