<?xml version="1.0" encoding="utf-8"?>
<!-- Generator: Adobe Illustrator 24.3.0, SVG Export Plug-In . SVG Version: 6.00 Build 0)  -->
<svg version="1.1" id="Layer_1" xmlns="http://www.w3.org/2000/svg" xmlns:xlink="http://www.w3.org/1999/xlink" x="0px" y="0px"
	 viewBox="0 0 72 72" style="enable-background:new 0 0 72 72;" xml:space="preserve">
<style type="text/css">
	.st0{fill:#FFFFFF;}
</style>
<path class="st0" d="M50.1,41.1c0,0.4-0.1,0.9-0.1,1.4c-0.1,0.4-0.2,0.9-0.4,1.3c-1.8,4.2-8,10.5-9.2,13.6l-3.6,2
	c0,0-0.5-2.8,3.4-7.8c1.5-1.9,2.8-3.5,3.7-4.7l-4.3,2.3c0.4-0.8,0.6-1.8,0.6-2.8l0,0l6.5-3.5c0.4-0.8,0.6-1.7,0.5-2.6l-7.3,4
	c-0.2-0.7-0.6-1.3-1-1.9l7.5-4.1c-0.5-0.5-1.2-0.9-2.3-1.1L37.2,41c-0.8-0.5-1.7-0.8-2.7-1l5.1-2.8c-3.5,0.3-8.8,1-12.6,0.2
	c-0.2,0-0.3-0.1-0.5-0.1c-0.8-0.2-1.5-0.5-2.1-0.9c-2.1-1.4-2.6-3.9-2.6-5.7c0-0.9,0.1-1.7,0.3-2.1c0.1-0.2,0.2-0.4,0.3-0.6l0,0l0,0
	c0.6-1.3,1.6-3.2,3.5-5.5c2.3-2.6,5.6-6.8,5.6-8.2l3.5-1.8c0,0-0.1,3.5-2.5,6.6c-2.5,3.2-4.3,5.5-4.3,5.5s-0.1,0.2-0.4,0.4l5-2.7
	c-0.4,0.9-0.7,1.8-0.7,2.8l-6.6,3.6c-0.4,0.9-0.7,1.8-0.6,2.6l7.6-4.1c0.2,0.7,0.6,1.3,1,1.9l-7.6,4.1c0.6,0.6,1.3,0.9,2.2,1.1
	l6.9-3.7c0.8,0.5,1.7,0.9,2.6,1l-5.4,2.9c1.1,0,2.3-0.1,3.7-0.2c4.8-0.4,7.3-0.5,9-0.1c0.7,0.2,1.3,0.4,1.9,0.8
	c0.2,0.1,0.3,0.2,0.4,0.3c0.6,0.4,1.1,0.9,1.5,1.5s0.7,1.2,0.9,1.9C50.1,39.6,50.2,40.3,50.1,41.1z"/>
</svg>
