<?xml version="1.0" encoding="utf-8"?>
<!-- Generator: Adobe Illustrator 24.3.0, SVG Export Plug-In . SVG Version: 6.00 Build 0)  -->
<svg version="1.1" id="Layer_1" xmlns="http://www.w3.org/2000/svg" xmlns:xlink="http://www.w3.org/1999/xlink" x="0px" y="0px"
	 viewBox="0 0 72 72" style="enable-background:new 0 0 72 72;" xml:space="preserve">
<style type="text/css">
	.st0{fill:#FFFFFF;}
</style>
<g>
	<path class="st0" d="M35,54c-6.3-2.3-10.7-6.5-12.4-8.2c1-0.4,1.7-1.4,1.7-2.5c0-0.5-0.1-0.9-0.3-1.3l0.8-0.4
		c0.5,0.5,1.1,0.8,1.9,0.8c1.5,0,2.7-1.2,2.7-2.7c0-0.8-0.3-1.4-0.8-1.9c1.4-0.1,2.4-1.3,2.4-2.7c0-1.5-1.2-2.7-2.7-2.7h-0.1
		C29,27.6,29.6,18,29.6,18C35.2,28.1,35,54,35,54z"/>
	<circle class="st0" cx="17.2" cy="29.6" r="1.7"/>
	<circle class="st0" cx="24.4" cy="27.8" r="1.7"/>
	<circle class="st0" cx="23.2" cy="35.5" r="1.7"/>
	<path class="st0" d="M30,35.1c0,1-0.8,1.7-1.7,1.7c-0.3,0-0.6-0.1-0.9-0.2c-0.5-0.3-0.9-0.9-0.9-1.5c0-0.9,0.6-1.6,1.5-1.7
		c0.1,0,0.2,0,0.3,0C29.2,33.3,30,34.1,30,35.1z"/>
	<path class="st0" d="M28.4,39.6c0,1-0.8,1.7-1.7,1.7c-0.4,0-0.7-0.1-1-0.3l0,0c-0.5-0.3-0.7-0.8-0.7-1.4c0-1,0.8-1.7,1.7-1.7
		c0.1,0,0.3,0,0.4,0.1C27.8,38.1,28.4,38.8,28.4,39.6z"/>
	<path class="st0" d="M23.4,43.3c0,0.8-0.6,1.5-1.4,1.7c-0.1,0-0.2,0-0.3,0c-1,0-1.7-0.8-1.7-1.7c0-1,0.8-1.7,1.7-1.7
		c0.8,0,1.5,0.6,1.7,1.4C23.3,43,23.4,43.2,23.4,43.3z"/>
	<path class="st0" d="M49.4,45.8c-1.6,1.7-6.1,6-12.4,8.2c0,0-0.2-25.9,5.4-36c0,0,0.7,9.5,1.4,14.4h-0.1c-1.5,0-2.7,1.2-2.7,2.7
		c0,1.4,1.1,2.5,2.4,2.7c-0.5,0.5-0.8,1.2-0.8,1.9c0,1.5,1.2,2.7,2.7,2.7c0.7,0,1.4-0.3,1.9-0.8L48,42l0,0c-0.2,0.4-0.3,0.8-0.3,1.3
		C47.7,44.4,48.4,45.4,49.4,45.8z"/>
	<circle class="st0" cx="54.8" cy="29.6" r="1.7"/>
	<circle class="st0" cx="47.6" cy="27.8" r="1.7"/>
	<circle class="st0" cx="48.8" cy="35.5" r="1.7"/>
	<path class="st0" d="M45.5,35.1c0,0.6-0.3,1.2-0.9,1.5c-0.3,0.2-0.6,0.2-0.9,0.2c-1,0-1.7-0.8-1.7-1.7s0.8-1.7,1.7-1.7
		c0.1,0,0.2,0,0.3,0C44.9,33.5,45.5,34.2,45.5,35.1z"/>
	<path class="st0" d="M47.1,39.6c0,0.6-0.3,1.1-0.7,1.4c-0.3,0.2-0.6,0.3-1,0.3c-1,0-1.7-0.8-1.7-1.7c0-0.8,0.6-1.5,1.3-1.7
		c0.1,0,0.3-0.1,0.4-0.1C46.3,37.9,47.1,38.7,47.1,39.6z"/>
	<path class="st0" d="M52.1,43.3c0,1-0.8,1.7-1.7,1.7c-0.1,0-0.2,0-0.3,0c-0.8-0.2-1.4-0.9-1.4-1.7c0-0.1,0-0.2,0-0.4
		c0.2-0.8,0.9-1.4,1.7-1.4C51.3,41.6,52.1,42.3,52.1,43.3z"/>
</g>
</svg>
