<?xml version="1.0" encoding="utf-8"?>
<!-- Generator: Adobe Illustrator 24.1.2, SVG Export Plug-In . SVG Version: 6.00 Build 0)  -->
<svg version="1.1" id="Layer_1" xmlns="http://www.w3.org/2000/svg" xmlns:xlink="http://www.w3.org/1999/xlink" x="0px" y="0px"
	 viewBox="0 0 72 72" style="enable-background:new 0 0 72 72;" xml:space="preserve">
<style type="text/css">
	.st0{fill:#FFFFFF;}
</style>
<path class="st0" d="M55.3,34.3H8.8c-0.6,0-1.2-0.5-1.2-1.2S8.1,32,8.8,32h46.6c0.6,0,1.2,0.5,1.2,1.2S56,34.3,55.3,34.3z"/>
<path class="st0" d="M63.8,49H18.2c-0.6,0-1.2-0.5-1.2-1.2s0.5-1.2,1.2-1.2h45.6c0.6,0,1.2,0.5,1.2,1.2S64.5,49,63.8,49z"/>
<circle class="st0" cx="36.8" cy="32.5" r="3.7"/>
<circle class="st0" cx="36.8" cy="48.3" r="3.7"/>
<path class="st0" d="M21.9,47.5c-0.3,0-0.5-0.2-0.5-0.5V33.2c0-0.3,0.2-0.5,0.5-0.5s0.5,0.2,0.5,0.5V47
	C22.4,47.3,22.2,47.5,21.9,47.5z"/>
<path class="st0" d="M26.6,47.5c-0.3,0-0.5-0.2-0.5-0.5V33.2c0-0.3,0.2-0.5,0.5-0.5s0.5,0.2,0.5,0.5V47
	C27.1,47.3,26.8,47.5,26.6,47.5z"/>
<path class="st0" d="M30.6,47.5c-0.3,0-0.5-0.2-0.5-0.5V33.2c0-0.3,0.2-0.5,0.5-0.5s0.5,0.2,0.5,0.5V47
	C31.1,47.3,30.9,47.5,30.6,47.5z"/>
<path class="st0" d="M42.8,47.5c-0.3,0-0.5-0.2-0.5-0.5V33.2c0-0.3,0.2-0.5,0.5-0.5s0.5,0.2,0.5,0.5V47
	C43.3,47.3,43.1,47.5,42.8,47.5z"/>
<path class="st0" d="M47.5,47.5c-0.3,0-0.5-0.2-0.5-0.5V33.2c0-0.3,0.2-0.5,0.5-0.5s0.5,0.2,0.5,0.5V47C48,47.3,47.8,47.5,47.5,47.5
	z"/>
<path class="st0" d="M51.5,47.5c-0.3,0-0.5-0.2-0.5-0.5V33.2c0-0.3,0.2-0.5,0.5-0.5s0.5,0.2,0.5,0.5V47C52,47.3,51.8,47.5,51.5,47.5
	z"/>
<polygon class="st0" points="36.2,30.7 33.3,27.9 34.2,27.3 31.8,25 32.8,24.4 30.3,21.7 33,19.8 34.5,23.3 34,23.7 35.7,26.4 
	35.2,26.8 "/>
<polygon class="st0" points="59.2,33.2 54.7,30.5 54.7,35.8 "/>
<polygon class="st0" points="14.7,47.9 19.3,50.5 19.3,45.2 "/>
</svg>
