<?xml version="1.0" encoding="utf-8"?>
<!-- Generator: Adobe Illustrator 24.2.0, SVG Export Plug-In . SVG Version: 6.00 Build 0)  -->
<svg version="1.1" id="Layer_1" xmlns="http://www.w3.org/2000/svg" xmlns:xlink="http://www.w3.org/1999/xlink" x="0px" y="0px"
	 viewBox="0 0 72 72" style="enable-background:new 0 0 72 72;" xml:space="preserve">
<style type="text/css">
	.st0{fill:#FFFFFF;}
</style>
<g>
	<circle class="st0" cx="45.5" cy="32.6" r="1.6"/>
	<circle class="st0" cx="44.9" cy="28.9" r="1.6"/>
	<circle class="st0" cx="42.9" cy="31.2" r="1.6"/>
	<circle class="st0" cx="41.8" cy="27.6" r="1.6"/>
	<circle class="st0" cx="48" cy="24.8" r="1.6"/>
	<circle class="st0" cx="43.8" cy="25.5" r="1.6"/>
	<circle class="st0" cx="47.4" cy="30.6" r="1.6"/>
	<circle class="st0" cx="47.2" cy="27.9" r="1.6"/>
	<circle class="st0" cx="49.3" cy="31.4" r="1.6"/>
	<circle class="st0" cx="50.7" cy="26.9" r="1.6"/>
	<circle class="st0" cx="28.6" cy="42.3" r="1.6"/>
	<circle class="st0" cx="32.2" cy="43.3" r="1.6"/>
	<circle class="st0" cx="26.6" cy="21.3" r="1.6"/>
	<circle class="st0" cx="28.9" cy="23.4" r="1.6"/>
	<circle class="st0" cx="24.5" cy="23.4" r="1.6"/>
	<circle class="st0" cx="27.3" cy="25.4" r="1.6"/>
	<circle class="st0" cx="24.5" cy="26.2" r="1.6"/>
	<circle class="st0" cx="26.9" cy="38.4" r="1.6"/>
	<circle class="st0" cx="28.4" cy="34.3" r="1.6"/>
	<circle class="st0" cx="38.1" cy="39.7" r="1.6"/>
	<circle class="st0" cx="34.7" cy="45.4" r="1.6"/>
	<circle class="st0" cx="29.4" cy="39.4" r="1.6"/>
	<circle class="st0" cx="26.1" cy="43.8" r="1.6"/>
	<circle class="st0" cx="31.1" cy="35.3" r="1.6"/>
	<circle class="st0" cx="34.4" cy="39.5" r="1.6"/>
	<circle class="st0" cx="35.2" cy="42.3" r="1.6"/>
	<circle class="st0" cx="31.8" cy="40.7" r="1.6"/>
	<circle class="st0" cx="36.1" cy="37.4" r="1.6"/>
	<circle class="st0" cx="33" cy="33.5" r="1.6"/>
	<circle class="st0" cx="35.3" cy="19.6" r="1.6"/>
	<circle class="st0" cx="17.3" cy="17.9" r="1.6"/>
	<circle class="st0" cx="45.7" cy="42.5" r="1.6"/>
	<circle class="st0" cx="54.7" cy="45.7" r="1.6"/>
	<circle class="st0" cx="29.4" cy="54.1" r="1.6"/>
</g>
</svg>
