<?xml version="1.0" encoding="utf-8"?>
<!-- Generator: Adobe Illustrator 25.2.0, SVG Export Plug-In . SVG Version: 6.00 Build 0)  -->
<svg version="1.1" id="Layer_1" xmlns="http://www.w3.org/2000/svg" xmlns:xlink="http://www.w3.org/1999/xlink" x="0px" y="0px"
	 viewBox="0 0 72 72" style="enable-background:new 0 0 72 72;" xml:space="preserve">
<style type="text/css">
	.st0{fill:none;}
	.st1{fill:#FFFFFF;}
	.st2{stroke:#000000;stroke-width:15;stroke-linecap:round;stroke-miterlimit:10;}
	.st3{fill:#FFFFFF;stroke:#000000;stroke-width:15;stroke-linecap:round;stroke-miterlimit:10;}
</style>
<g>
	<g>
		<path d="M24.4,50c-0.2,0.1-0.3,0.2-0.5,0.3c0,0,0,0,0,0C24.1,50.2,24.3,50.1,24.4,50z"/>
		<path d="M38.7,49L38.7,49C38.7,49,38.7,49,38.7,49"/>
		<line class="st0" x1="37" y1="49.8" x2="37" y2="49.8"/>
		<line class="st0" x1="37" y1="49.8" x2="37" y2="49.8"/>
		<path class="st0" d="M37,49.8C37,49.8,37,49.8,37,49.8C37,49.8,36.9,49.8,37,49.8"/>
		<path d="M37.2,50C37.2,50,37.2,50,37.2,50"/>
		<path d="M38.6,53.2L38.6,53.2z"/>
	</g>
</g>
<path d="M41.5,38.2L41,37.8C41.2,37.9,41.3,38.1,41.5,38.2z"/>
<path class="st1" d="M42.5,43.3c-0.8,3-3.9,4.8-7,4c-3-0.8-4.8-3.9-4-7c0.2-0.8,0.6-1.4,1-2l5.8-1.9l4.3,4.7
	C42.8,41.9,42.7,42.6,42.5,43.3z"/>
<g>
	<g>
		<path class="st1" d="M48.4,42c-0.5,0.5-1.1,0.7-1.8,0.7c-0.7,0-1.4-0.3-2-0.9l-3.2-3.5L41,37.8l-2.3-2.5l-8.4,2.7
			C30.1,38,29.8,38,29.6,38c-1.1,0-2.2-0.7-2.5-1.8c-0.4-1.4,0.3-2.9,1.7-3.3l8.6-2.7L41,16.9c0.1-0.4,0.3-0.8,0.6-1.1
			c0,0,0-0.1,0.1-0.1c0,0,0-0.1,0.1-0.1c0.1-0.1,0.2-0.2,0.4-0.3c0,0,0.1,0,0.1-0.1c0.2-0.1,0.3-0.2,0.5-0.2c0.1,0,0.1,0,0.2-0.1
			c0.1,0,0.2,0,0.3-0.1c0.1,0,0.1,0,0.2,0c0,0,0.1,0,0.1,0c0.2,0,0.5,0,0.7,0.1c1.4,0.4,2.2,1.8,1.9,3.2l-3.6,13.2l6.1,6.7
			C49.5,39.3,49.5,41,48.4,42z"/>
	</g>
</g>
<g>
	<g>
		<g>
			<path d="M22.8,53.5C22.8,53.5,22.7,53.5,22.8,53.5C22.7,53.5,22.7,53.5,22.8,53.5C22.7,53.5,22.7,53.5,22.8,53.5
				C22.7,53.5,22.8,53.5,22.8,53.5z"/>
		</g>
		<g>
			<path class="st2" d="M47.1,52.7"/>
			<path d="M22.8,53.5C22.8,53.5,22.7,53.5,22.8,53.5C22.7,53.5,22.7,53.5,22.8,53.5C22.7,53.5,22.7,53.5,22.8,53.5
				C22.7,53.5,22.8,53.5,22.8,53.5z"/>
		</g>
	</g>
	<g>
		<g>
			<line class="st0" x1="37" y1="49.8" x2="37" y2="49.8"/>
			<path d="M38.8,49C38.8,49,38.7,49,38.8,49C38.7,49,38.7,49,38.8,49C38.7,49,38.7,49,38.8,49L38.8,49z"/>
			<line class="st0" x1="37" y1="49.8" x2="37" y2="49.8"/>
			<path class="st2" d="M47.1,52.7"/>
		</g>
	</g>
</g>
<g>
	<g>
		<g>
			<path class="st1" d="M22.1,53.4C22.1,53.4,22.1,53.4,22.1,53.4C22.1,53.4,22,53.4,22.1,53.4C22,53.4,22.1,53.4,22.1,53.4z"/>
			<path class="st1" d="M22.1,53.4C22.1,53.4,22.1,53.4,22.1,53.4C22.1,53.4,22,53.4,22.1,53.4C22,53.4,22.1,53.4,22.1,53.4
				C22.1,53.4,22.1,53.4,22.1,53.4z"/>
		</g>
		<g>
			<path class="st1" d="M50.1,54.7c0,0.1-0.1,0.1-0.2,0.2c-2.2,1.8-4.4,2.5-6.3,2.5c0,0-0.1,0-0.1,0h0C45.8,57.3,48,56.4,50.1,54.7z
				"/>
			<path class="st3" d="M50.8,52.5"/>
			<path class="st1" d="M22.1,53.4C22.1,53.4,22.1,53.4,22.1,53.4C22.1,53.4,22,53.4,22.1,53.4C22,53.4,22.1,53.4,22.1,53.4
				C22.1,53.4,22.1,53.4,22.1,53.4z"/>
		</g>
	</g>
	<g>
		<g>
			<path class="st1" d="M43.3,57.3L43.3,57.3c-2.6-0.1-4.7-1.3-6.1-2.3c-0.1,0-0.1-0.1-0.2-0.2c0.7,0.5,1.5,1.1,2.5,1.5
				C40.6,56.8,41.9,57.2,43.3,57.3z"/>
			<path class="st3" d="M50.8,52.5"/>
		</g>
		<g>
			<path class="st1" d="M22.7,53.5C22.7,53.5,22.7,53.5,22.7,53.5C22.7,53.5,22.7,53.5,22.7,53.5C22.7,53.5,22.8,53.5,22.7,53.5
				C22.8,53.5,22.7,53.5,22.7,53.5z"/>
			<path class="st1" d="M58.1,55.1c-2.6,0-4.7-1.6-5.8-2.6c1.1-1,3.2-2.5,5.7-2.6c0.6,0,1.1-0.5,1.1-1.1c0-0.6-0.5-1.1-1.1-1.1
				c-3.4,0.1-6,2.1-7.3,3.2c-0.2-0.2-0.4-0.4-0.7-0.6c-2.1-1.8-4.4-2.7-6.8-2.6c-0.1,0-0.2,0-0.3,0c-0.1,0-0.1,0-0.2,0
				c-0.1,0-0.1,0-0.2,0c-1.1,0.1-2.1,0.5-3,0.8c-0.3,0.1-0.6,0.3-0.8,0.4c0,0,0,0,0,0c0,0,0,0,0,0c0,0,0,0,0,0
				c-0.6,0.3-1.1,0.7-1.5,1c0,0,0,0,0,0c0,0-0.1,0.1-0.1,0.1c0,0,0,0,0,0c-0.4,0.3-0.7,0.6-1,0.8c-0.1-0.1-0.3-0.2-0.4-0.4
				c0,0,0,0,0,0c-2.2-1.9-4.5-2.9-7-2.9c-3.4,0.1-6,2-7.3,3.2c-2.1-2-4.4-3.1-6.7-3.2c-0.6,0-1.1,0.4-1.2,1c0,0.6,0.4,1.1,1,1.2
				c1.8,0.1,3.6,1,5.3,2.6c-1.7,1.6-3.5,2.5-5.3,2.6c-0.6,0-1.1,0.6-1,1.2c0,0.6,0.5,1,1.1,1c0,0,0,0,0.1,0c2.4-0.1,4.6-1.2,6.7-3.2
				c1.3,1.2,3.9,3.2,7.3,3.2c0.1,0,0.1,0,0.2,0c2.5,0,5-1.1,7.2-3.2c0.3,0.2,0.6,0.5,1,0.8c0,0,0,0,0,0c0.7,0.5,1.5,1.1,2.5,1.5
				c1,0.5,2.3,0.9,3.7,0.9c0.1,0,0.1,0,0.2,0h0c2.3,0,4.5-0.9,6.5-2.6c0.2-0.2,0.5-0.4,0.7-0.6c1.3,1.2,3.9,3.2,7.3,3.2c0,0,0,0,0,0
				c0.6,0,1.1-0.5,1.1-1.1C59.2,55.6,58.7,55.1,58.1,55.1z M28.8,55.1c-2.6,0-4.7-1.6-5.8-2.6c1.1-1,3.2-2.5,5.8-2.6
				c2,0,3.9,0.8,5.8,2.6C32.7,54.2,30.8,55.1,28.8,55.1z M43.6,55.1C43.6,55.1,43.6,55.1,43.6,55.1c-1,0-2-0.2-3-0.7
				c-1.2-0.6-2.2-1.3-2.9-1.9c0.6-0.6,1.6-1.3,2.9-1.9c1-0.4,2-0.7,2.9-0.7h0c0.7,0,1.5,0.1,2.1,0.4c0,0,0,0,0,0c0,0,0,0,0.1,0
				c1.3,0.5,2.5,1.3,3.5,2.2C47.7,53.9,45.8,55,43.6,55.1z"/>
		</g>
	</g>
</g>
</svg>
