<?xml version="1.0" encoding="utf-8"?>
<!-- Generator: Adobe Illustrator 24.3.0, SVG Export Plug-In . SVG Version: 6.00 Build 0)  -->
<svg version="1.1" id="Layer_1" xmlns="http://www.w3.org/2000/svg" xmlns:xlink="http://www.w3.org/1999/xlink" x="0px" y="0px"
	 viewBox="0 0 72 72" style="enable-background:new 0 0 72 72;" xml:space="preserve">
<style type="text/css">
	.st0{fill:#FFFFFF;}
</style>
<g>
	<path class="st0" d="M51.2,42.4v9.3c0,1.3-1,2.3-2.3,2.3h-9.3c-1.3,0-2.3-1-2.3-2.3v-9.3c0-1.3,1-2.3,2.3-2.3h9.3
		C50.2,40.1,51.2,41.1,51.2,42.4z"/>
	<path class="st0" d="M51.2,25.7v10.4c0,1.3-1,2.3-2.3,2.3H35.6v13.2c0,1.3-1,2.3-2.3,2.3H23.1c-1.3,0-2.3-1-2.3-2.3v-26
		c0-1.3,1-2.3,2.3-2.3h4.7l4,6.9h8.4l4-6.9H49C50.2,23.4,51.2,24.5,51.2,25.7z"/>
	<polygon class="st0" points="41.7,23 41.5,23.4 38.8,28.1 33,28.1 30.3,23.4 30.1,23 33,18 38.8,18 	"/>
</g>
</svg>
