<?xml version="1.0" encoding="UTF-8"?>
<svg width="400px" height="392px" viewBox="0 0 400 392" version="1.1" xmlns="http://www.w3.org/2000/svg" xmlns:xlink="http://www.w3.org/1999/xlink">
    <title>st-jude-childrens-vertical</title>
    <g id="Symbols" stroke="none" stroke-width="1" fill="none" fill-rule="evenodd">
        <g id="st-jude-childrens-vertical">
            <g id="ALSAC---Danny-Thomas" transform="translate(36.948444, 370.441333)">
                <path d="M312.439556,1.56 C313.879556,1.56 314.692889,2.39555556 314.692889,3.55111111 C314.692889,4.62222222 313.928444,5.57333333 312.368444,5.57333333 L309.728444,5.57333333 L309.728444,1.56 L312.439556,1.56 Z M308.035111,11.8977778 L309.728444,11.8977778 L309.728444,6.89777778 L312.146222,6.89777778 L314.728444,10.9422222 C315.186222,11.6622222 315.586222,11.9155556 316.501778,11.9333333 C316.826222,11.9333333 316.990667,11.8977778 317.315111,11.8577778 L317.315111,10.5422222 C317.301778,10.56 316.879556,10.56 316.861778,10.56 C316.501778,10.56 316.297333,10.4222222 316.132889,10.16 L313.879556,6.66222222 C315.368444,6.16 316.368444,4.96 316.368444,3.52 C316.368444,1.58222222 314.910667,0.186666667 312.621778,0.186666667 L308.035111,0.186666667 L308.035111,11.8977778 Z M296.732889,11.8977778 L304.848444,11.8977778 L304.848444,10.5422222 L298.421778,10.5422222 L298.421778,6.49333333 L303.270667,6.49333333 L303.270667,5.12888889 L298.421778,5.12888889 L298.421778,1.58222222 L304.768444,1.58222222 L304.768444,0.186666667 L296.732889,0.186666667 L296.732889,11.8977778 Z M287.297333,1.61333333 C290.026222,1.61333333 291.679556,3.53333333 291.679556,6.04444444 C291.679556,8.55555556 290.044,10.4755556 287.332889,10.4755556 L284.990667,10.4755556 L284.990667,1.61333333 L287.297333,1.61333333 Z M283.301778,11.8977778 L287.417333,11.8977778 C290.941778,11.8977778 293.377333,9.40888889 293.377333,6.04444444 C293.377333,2.68 291.039556,0.186666667 287.532889,0.186666667 L283.301778,0.186666667 L283.301778,11.8977778 Z M271.115111,3.69777778 L271.079556,2.56888889 L271.826222,3.69777778 L277.457333,11.8977778 L279.244,11.8977778 L279.244,0.186666667 L277.666222,0.186666667 L277.710667,8.48444444 L277.728444,9.57777778 L277.017333,8.48444444 L271.301778,0.186666667 L269.572889,0.186666667 L269.572889,11.8977778 L271.146222,11.8977778 L271.115111,3.69777778 Z M261.137333,10.5911111 C259.426222,10.5911111 258.190667,9.50666667 258.190667,7.61333333 L258.190667,0.186666667 L256.497333,0.186666667 L256.497333,7.75111111 C256.497333,10.3866667 258.408444,12.0755556 261.137333,12.0755556 C263.817333,12.0755556 265.764,10.3466667 265.764,7.75111111 L265.764,0.186666667 L264.070667,0.186666667 L264.070667,7.61333333 C264.070667,9.50666667 262.812889,10.5911111 261.137333,10.5911111 L261.137333,10.5911111 Z M247.568444,10.5911111 C245.212889,10.5911111 243.421778,8.68888889 243.421778,6.04444444 C243.421778,3.4 245.212889,1.49333333 247.568444,1.49333333 C249.910667,1.49333333 251.701778,3.4 251.701778,6.04444444 C251.701778,8.68888889 249.910667,10.5911111 247.568444,10.5911111 L247.568444,10.5911111 Z M247.568444,1.49016602e-13 C244.315111,1.49016602e-13 241.724,2.53333333 241.724,6.04444444 C241.724,9.56 244.315111,12.0755556 247.568444,12.0755556 C250.799556,12.0755556 253.399556,9.56 253.399556,6.04444444 C253.399556,2.53333333 250.799556,1.49016602e-13 247.568444,1.49016602e-13 L247.568444,1.49016602e-13 Z M233.608444,11.8977778 L233.608444,6.61333333 L238.470667,6.61333333 L238.470667,5.20888889 L233.608444,5.20888889 L233.608444,1.58222222 L239.950667,1.58222222 L239.950667,0.186666667 L231.915111,0.186666667 L231.915111,11.8977778 L233.608444,11.8977778 Z M224.110667,12.4088889 C224.355111,11.8977778 224.541778,11.4488889 224.541778,10.9555556 C224.541778,10.0755556 223.990667,9.58666667 223.284,9.58666667 C222.599556,9.58666667 222.079556,10.1422222 222.079556,10.7733333 C222.079556,11.3822222 222.492889,11.8355556 223.079556,11.9333333 L222.021778,14.56 L223.115111,14.56 L224.110667,12.4088889 Z M215.119556,12.0622222 C217.675111,12.0622222 219.404,10.56 219.404,8.58222222 C219.404,7.16888889 218.710667,6.21777778 216.524,5.52888889 L214.528444,4.91111111 C213.252889,4.48888889 212.644,3.96888889 212.644,3.06666667 C212.644,2.05777778 213.492889,1.37333333 214.915111,1.37333333 C216.061778,1.37333333 217.186222,1.91111111 217.968444,2.86666667 L219.150667,1.88 C218.270667,0.848888889 216.866222,0.0177777778 214.915111,0.0177777778 C212.559556,0.0177777778 210.999556,1.32444444 210.999556,3.28888889 C210.999556,4.72444444 211.866222,5.74222222 213.764,6.29333333 L215.830667,6.92888889 C217.337333,7.39555556 217.728444,7.98222222 217.728444,8.75111111 C217.728444,9.89333333 216.692889,10.7288889 215.119556,10.7288889 C213.715111,10.7288889 212.577333,10.1422222 211.661778,9.24 L210.577333,10.3111111 C211.661778,11.4133333 213.252889,12.0622222 215.119556,12.0622222 L215.119556,12.0622222 Z M201.315111,7.35111111 L203.364,1.88 L205.430667,7.35111111 L201.315111,7.35111111 Z M207.141778,11.8977778 L208.919556,11.8977778 L204.359556,0.186666667 L202.448444,0.186666667 L197.892889,11.8977778 L199.604,11.8977778 L200.804,8.68888889 L205.919556,8.68888889 L207.141778,11.8977778 Z M184.999556,4.20888889 L184.981778,2.61333333 L185.675111,4.24 L188.692889,11.0666667 L189.999556,11.0666667 L193.026222,4.24 L193.737333,2.6 L193.701778,4.20888889 L193.670667,11.8977778 L195.297333,11.8977778 L195.297333,0.186666667 L193.230667,0.186666667 L189.999556,7.50222222 L189.386222,8.99111111 L188.759556,7.50222222 L185.519556,0.186666667 L183.452889,0.186666667 L183.452889,11.8977778 L185.030667,11.8977778 L184.999556,4.20888889 Z M174.279556,10.5911111 C171.919556,10.5911111 170.119556,8.68888889 170.119556,6.04444444 C170.119556,3.4 171.919556,1.49333333 174.279556,1.49333333 C176.612889,1.49333333 178.408444,3.4 178.408444,6.04444444 C178.408444,8.68888889 176.612889,10.5911111 174.279556,10.5911111 L174.279556,10.5911111 Z M174.279556,1.49016602e-13 C171.021778,1.49016602e-13 168.430667,2.53333333 168.430667,6.04444444 C168.430667,9.56 171.021778,12.0755556 174.279556,12.0755556 C177.510667,12.0755556 180.101778,9.56 180.101778,6.04444444 C180.101778,2.53333333 177.510667,1.49016602e-13 174.279556,1.49016602e-13 L174.279556,1.49016602e-13 Z M163.399556,11.8977778 L165.092889,11.8977778 L165.092889,0.186666667 L163.399556,0.186666667 L163.399556,5.14666667 L157.586222,5.14666667 L157.586222,0.186666667 L155.892889,0.186666667 L155.892889,11.8977778 L157.586222,11.8977778 L157.586222,6.58222222 L163.399556,6.58222222 L163.399556,11.8977778 Z M143.337333,1.59555556 L147.386222,1.59555556 L147.386222,11.8977778 L149.084,11.8977778 L149.084,1.59555556 L153.115111,1.59555556 L153.115111,0.186666667 L143.337333,0.186666667 L143.337333,1.59555556 Z M137.292889,0.186666667 L135.479556,0.186666667 L132.092889,5.69333333 L128.688444,0.186666667 L126.821778,0.186666667 L131.208444,7.09333333 L131.208444,11.8977778 L132.906222,11.8977778 L132.906222,7.09333333 L137.292889,0.186666667 Z M116.097333,3.69777778 L116.066222,2.56888889 L116.808444,3.69777778 L122.435111,11.8977778 L124.230667,11.8977778 L124.230667,0.186666667 L122.652889,0.186666667 L122.688444,8.48444444 L122.706222,9.57777778 L121.995111,8.48444444 L116.284,0.186666667 L114.555111,0.186666667 L114.555111,11.8977778 L116.132889,11.8977778 L116.097333,3.69777778 Z M102.377333,3.69777778 L102.341778,2.56888889 L103.088444,3.69777778 L108.710667,11.8977778 L110.510667,11.8977778 L110.510667,0.186666667 L108.932889,0.186666667 L108.964,8.48444444 L108.981778,9.57777778 L108.270667,8.48444444 L102.559556,0.186666667 L100.830667,0.186666667 L100.830667,11.8977778 L102.408444,11.8977778 L102.377333,3.69777778 Z M90.6217778,7.35111111 L92.6706667,1.88 L94.7373333,7.35111111 L90.6217778,7.35111111 Z M96.4484444,11.8977778 L98.2306667,11.8977778 L93.6662222,0.186666667 L91.7551111,0.186666667 L87.1995556,11.8977778 L88.9106667,11.8977778 L90.1106667,8.68888889 L95.2262222,8.68888889 L96.4484444,11.8977778 Z M79.3862222,1.61333333 C82.1151111,1.61333333 83.7773333,3.53333333 83.7773333,6.04444444 C83.7773333,8.55555556 82.1284444,10.4755556 79.4217778,10.4755556 L77.084,10.4755556 L77.084,1.61333333 L79.3862222,1.61333333 Z M75.3862222,11.8977778 L79.5062222,11.8977778 C83.0262222,11.8977778 85.4706667,9.40888889 85.4706667,6.04444444 C85.4706667,2.68 83.1328889,0.186666667 79.6217778,0.186666667 L75.3862222,0.186666667 L75.3862222,11.8977778 Z" id="Fill-13" fill="#626569"></path>
                <path d="M66.5066667,8.03555556 C67.5244444,8.03555556 68.3555556,7.24888889 68.3555556,6.24 C68.3555556,5.24 67.5244444,4.42666667 66.5066667,4.42666667 C65.5022222,4.42666667 64.6711111,5.24 64.6711111,6.24 C64.6711111,7.24888889 65.5022222,8.03555556 66.5066667,8.03555556" id="Fill-16" fill="#C6093D"></path>
                <path d="M52.7866667,10.592 C50.4666667,10.5742222 48.6888889,8.73422222 48.6888889,6.04977778 C48.6888889,3.31644444 50.5155556,1.49422222 52.7688889,1.49422222 C54.3822222,1.49422222 55.4977778,2.21422222 56.2755556,3.672 L57.7688889,3.00088889 C56.7866667,1.10755556 55.1911111,0.00977777778 52.8044444,0.00977777778 C49.5733333,0.00977777778 46.9911111,2.46311111 46.9911111,6.04977778 C46.9911111,9.62311111 49.5733333,12.0764444 52.7866667,12.0764444 C55.16,12.0764444 56.7555556,10.9253333 57.7288889,9.08977778 L56.2933333,8.472 C55.5333333,9.90755556 54.3955556,10.592 52.7866667,10.592 L52.7866667,10.592 Z M37.6622222,7.352 L39.7066667,1.87644444 L41.7777778,7.352 L37.6622222,7.352 Z M43.4888889,11.8986667 L45.2666667,11.8986667 L40.7111111,0.187555556 L38.7911111,0.187555556 L34.2355556,11.8986667 L35.9466667,11.8986667 L37.1466667,8.68533333 L42.2666667,8.68533333 L43.4888889,11.8986667 Z M28.1377778,12.0631111 C30.6933333,12.0631111 32.4266667,10.5608889 32.4266667,8.58755556 C32.4266667,7.16533333 31.7333333,6.20977778 29.5422222,5.52533333 L27.5422222,4.90755556 C26.2755556,4.48977778 25.6666667,3.96533333 25.6666667,3.06755556 C25.6666667,2.06755556 26.5066667,1.37866667 27.9333333,1.37866667 C29.0888889,1.37866667 30.2044444,1.912 30.9822222,2.86755556 L32.1688889,1.87644444 C31.2888889,0.840888889 29.88,0.0231111111 27.9333333,0.0231111111 C25.5822222,0.0231111111 24.0222222,1.32977778 24.0222222,3.28088889 C24.0222222,4.72533333 24.8888889,5.74755556 26.7822222,6.29422222 L28.8488889,6.92977778 C30.36,7.40088889 30.7466667,7.98311111 30.7466667,8.752 C30.7466667,9.88977778 29.7155556,10.7253333 28.1377778,10.7253333 C26.7333333,10.7253333 25.5955556,10.1431111 24.68,9.23644444 L23.6,10.312 C24.68,11.4142222 26.2755556,12.0631111 28.1377778,12.0631111 L28.1377778,12.0631111 Z M21.7555556,10.4764444 L15.3333333,10.4764444 L15.3333333,0.187555556 L13.6355556,0.187555556 L13.6355556,11.8986667 L21.7555556,11.8986667 L21.7555556,10.4764444 Z M3.42222222,7.352 L5.47111111,1.87644444 L7.53777778,7.352 L3.42222222,7.352 Z M9.24888889,11.8986667 L11.0266667,11.8986667 L6.47111111,0.187555556 L4.55555556,0.187555556 L1.0658141e-13,11.8986667 L1.71111111,11.8986667 L2.91555556,8.68533333 L8.02666667,8.68533333 L9.24888889,11.8986667 Z" id="Fill-18" fill="#626569"></path>
            </g>
            <path d="M377.903556,348.772 C377.156889,348.772 376.530222,349.389778 376.530222,350.127556 C376.530222,350.869778 377.156889,351.478667 377.903556,351.478667 C378.654667,351.478667 379.276889,350.869778 379.276889,350.127556 C379.276889,349.389778 378.654667,348.772 377.903556,348.772 L377.903556,348.772 Z M367.476889,339.700889 C369.334667,339.700889 370.632444,340.852 370.632444,343.074222 L370.632444,351.345333 L372.708,351.345333 L372.708,342.665333 C372.708,339.820889 370.841333,337.865333 367.916889,337.865333 C366.232444,337.865333 364.703556,338.496444 363.596889,339.647556 L363.565778,338.140889 L361.548,338.140889 L361.548,351.345333 L363.596889,351.345333 L363.596889,341.443111 C364.783556,340.185333 366.205778,339.700889 367.476889,339.700889 L367.476889,339.700889 Z M351.725778,339.620889 C354.054667,339.620889 355.556889,341.363111 355.708,343.634222 L347.690222,343.634222 C348.076889,341.212 349.708,339.620889 351.725778,339.620889 L351.725778,339.620889 Z M357.676889,348.620889 L356.050222,347.700889 C355.090222,349.123111 353.743556,349.843111 352.063556,349.843111 C349.708,349.843111 347.868,347.927556 347.641333,345.323111 L357.885778,345.323111 C357.908,345.038667 357.908,344.807556 357.908,344.532 C357.908,341.100889 355.939111,337.865333 351.774667,337.865333 C348.361333,337.865333 345.516889,340.594222 345.516889,344.736444 C345.516889,348.740889 348.485778,351.652 352.116889,351.652 C354.396889,351.652 356.463556,350.585333 357.676889,348.620889 L357.676889,348.620889 Z M344.014667,339.820889 L343.943556,337.865333 C341.841333,337.834222 339.948,338.700889 338.810222,340.518667 L338.788,338.140889 L336.765778,338.140889 L336.765778,351.345333 L338.810222,351.345333 L338.810222,342.665333 C339.774667,340.745333 342.045778,339.776444 344.014667,339.820889 L344.014667,339.820889 Z M321.854667,344.736444 C321.854667,341.825333 323.694667,339.700889 326.388,339.700889 C327.859111,339.700889 329.183556,340.314222 330.192444,341.514222 L330.192444,347.998667 C329.205778,349.185333 327.885778,349.772 326.388,349.772 C323.694667,349.772 321.854667,347.594222 321.854667,344.736444 L321.854667,344.736444 Z M330.214667,351.345333 L332.259111,351.345333 L332.259111,332.754222 L330.192444,332.754222 L330.192444,339.265333 C329.130222,338.340889 327.734667,337.865333 326.156889,337.865333 C322.476889,337.887556 319.730222,340.852 319.730222,344.736444 C319.730222,348.620889 322.450222,351.634222 326.156889,351.634222 C327.734667,351.634222 329.156889,351.047556 330.192444,350.016444 L330.214667,351.345333 Z M314.068,351.345333 L316.139111,351.345333 L316.139111,332.745333 L314.068,332.745333 L314.068,351.345333 Z M307.530222,351.354222 L309.574667,351.354222 L309.574667,338.140889 L307.530222,338.140889 L307.530222,351.354222 Z M308.543556,335.714222 C309.343556,335.714222 309.996889,335.100889 309.996889,334.305333 C309.996889,333.518667 309.343556,332.878667 308.543556,332.878667 C307.765778,332.878667 307.125778,333.518667 307.125778,334.305333 C307.125778,335.100889 307.765778,335.714222 308.543556,335.714222 L308.543556,335.714222 Z M297.836889,339.700889 C299.699111,339.700889 300.996889,340.852 300.996889,343.074222 L300.996889,351.345333 L303.063556,351.345333 L303.063556,342.665333 C303.063556,339.820889 301.196889,337.865333 298.272444,337.865333 C296.592444,337.865333 295.063556,338.496444 293.956889,339.620889 L293.956889,332.754222 L291.912444,332.754222 L291.912444,351.345333 L293.956889,351.345333 L293.956889,341.443111 C295.143556,340.185333 296.565778,339.700889 297.836889,339.700889 L297.836889,339.700889 Z M283.205778,337.865333 C279.450222,337.865333 276.708,340.772 276.708,344.736444 C276.708,348.718667 279.476889,351.652 283.228,351.652 C285.819111,351.652 287.734667,350.220889 288.770222,348.154222 L286.952444,347.367556 C286.152444,348.852 285.201333,349.789778 283.103556,349.789778 C280.663556,349.789778 278.854667,347.754222 278.854667,344.736444 C278.854667,341.825333 280.663556,339.732 283.125778,339.732 C285.148,339.732 286.183556,340.745333 286.903556,342.180889 L288.770222,341.363111 C287.712444,339.163111 285.792444,337.865333 283.205778,337.865333 L283.205778,337.865333 Z M256.339111,344.656444 C256.339111,341.825333 258.130222,339.700889 260.788,339.700889 C262.241333,339.700889 263.530222,340.314222 264.543556,341.514222 L264.543556,347.909778 C263.556889,349.074222 262.268,349.660889 260.788,349.660889 C258.130222,349.660889 256.339111,347.496444 256.339111,344.656444 L256.339111,344.656444 Z M266.619111,350.638667 L266.619111,338.140889 L264.592444,338.140889 L264.592444,339.283111 C263.530222,338.372 262.139111,337.865333 260.556889,337.865333 C256.912444,337.887556 254.214667,340.852 254.214667,344.656444 C254.214667,348.509778 256.885778,351.523111 260.530222,351.523111 C262.108,351.523111 263.508,350.940889 264.543556,349.923111 L264.543556,350.638667 C264.543556,353.394222 262.885778,355.260889 260.174667,355.260889 C258.356889,355.260889 256.988,354.518667 256.005778,353.065333 L254.374667,354.260889 C255.588,355.900889 257.352444,357.100889 260.223556,357.100889 C264.388,357.100889 266.619111,354.465333 266.619111,350.638667 L266.619111,350.638667 Z M245.445778,339.700889 C247.303556,339.700889 248.601333,340.852 248.601333,343.074222 L248.601333,351.345333 L250.672444,351.345333 L250.672444,342.665333 C250.672444,339.820889 248.805778,337.865333 245.881333,337.865333 C244.196889,337.865333 242.672444,338.496444 241.561333,339.647556 L241.530222,338.140889 L239.516889,338.140889 L239.516889,351.345333 L241.561333,351.345333 L241.561333,341.443111 C242.748,340.185333 244.170222,339.700889 245.445778,339.700889 L245.445778,339.700889 Z M232.961333,351.354222 L235.005778,351.354222 L235.005778,338.140889 L232.961333,338.140889 L232.961333,351.354222 Z M233.965778,335.714222 C234.765778,335.714222 235.419111,335.100889 235.419111,334.305333 C235.419111,333.518667 234.765778,332.878667 233.965778,332.878667 C233.188,332.878667 232.543556,333.518667 232.543556,334.305333 C232.543556,335.100889 233.188,335.714222 233.965778,335.714222 L233.965778,335.714222 Z M230.174667,338.140889 L228.050222,338.140889 L224.503556,347.438667 L223.912444,349.123111 L223.290222,347.438667 L219.743556,338.140889 L217.516889,338.140889 L222.694667,351.345333 L225.023556,351.345333 L230.174667,338.140889 Z M206.690222,347.927556 C206.690222,346.625333 207.539111,345.985333 210.463556,345.429778 L213.259111,344.940889 L213.259111,347.949778 C212.201333,349.096444 210.801333,349.923111 209.121333,349.923111 C207.619111,349.923111 206.690222,349.158667 206.690222,347.927556 L206.690222,347.927556 Z M213.285778,351.345333 L215.334667,351.345333 L215.334667,342.763111 C215.334667,339.754222 213.521333,337.887556 210.205778,337.887556 C206.765778,337.887556 205.005778,339.932 204.850222,342.132 L206.845778,342.407556 C207.001333,340.718667 208.108,339.647556 210.103556,339.647556 C212.072444,339.647556 213.259111,340.829778 213.259111,342.763111 L213.259111,343.349778 L209.299111,344.047556 C205.863556,344.656444 204.588,345.883111 204.588,348.127556 C204.588,350.154222 206.250222,351.634222 208.783556,351.634222 C210.494667,351.634222 212.152444,350.838667 213.285778,349.660889 L213.285778,351.345333 Z M195.339111,351.607556 C199.143556,351.607556 201.681333,349.358667 201.681333,346.372 C201.681333,344.225333 200.672444,342.812 197.436889,341.794222 L194.334667,340.772 C192.263556,340.109778 191.276889,339.265333 191.276889,337.785333 C191.276889,336.145333 192.672444,334.998667 194.925778,334.998667 C196.761333,334.998667 198.521333,335.843111 199.663556,337.327556 L201.294667,336.069778 C200.023556,334.487556 197.899111,333.212 194.952444,333.212 C191.530222,333.212 189.156889,335.100889 189.156889,338.096444 C189.156889,340.260889 190.530222,341.749778 193.272444,342.607556 L196.476889,343.612 C198.939111,344.380889 199.534667,345.345333 199.534667,346.598667 C199.534667,348.465333 197.876889,349.843111 195.316889,349.843111 C193.116889,349.843111 191.374667,348.923111 189.983556,347.523111 L188.503556,348.874222 C190.139111,350.585333 192.543556,351.607556 195.339111,351.607556 L195.339111,351.607556 Z M178.854667,348.772 C178.099111,348.772 177.481333,349.389778 177.481333,350.127556 C177.481333,350.869778 178.099111,351.478667 178.854667,351.478667 C179.605778,351.478667 180.228,350.869778 180.228,350.127556 C180.228,349.389778 179.605778,348.772 178.854667,348.772 L178.854667,348.772 Z M164.454667,349.478667 C166.032444,350.914222 167.685778,351.652 169.788,351.652 C172.583556,351.652 174.659111,350.172 174.659111,347.700889 C174.659111,345.905333 173.796889,344.860889 171.236889,344.069778 L168.885778,343.327556 C167.610222,342.940889 166.939111,342.407556 166.939111,341.389778 C166.939111,340.287556 167.823556,339.523111 169.325778,339.523111 C170.743556,339.523111 171.961333,340.185333 172.970222,341.332 L174.423556,340.087556 C172.970222,338.656444 171.525778,337.865333 169.450222,337.865333 C166.965778,337.865333 164.943556,339.189778 164.943556,341.567556 C164.943556,343.278667 165.983556,344.532 168.263556,345.194222 L170.716889,345.883111 C172.068,346.287556 172.690222,346.878667 172.690222,347.909778 C172.690222,349.096444 171.650222,349.976444 169.836889,349.976444 C168.592444,349.976444 167.325778,349.540889 165.876889,348.234222 L164.454667,349.478667 Z M156.245778,339.620889 C158.574667,339.620889 160.072444,341.363111 160.228,343.634222 L152.205778,343.634222 C152.592444,341.212 154.223556,339.620889 156.245778,339.620889 L156.245778,339.620889 Z M162.192444,348.620889 L160.565778,347.700889 C159.605778,349.123111 158.263556,349.843111 156.574667,349.843111 C154.223556,349.843111 152.388,347.927556 152.152444,345.323111 L162.401333,345.323111 C162.428,345.038667 162.428,344.807556 162.428,344.532 C162.428,341.100889 160.459111,337.865333 156.294667,337.865333 C152.876889,337.865333 150.032444,340.594222 150.032444,344.736444 C150.032444,348.740889 153.005778,351.652 156.632444,351.652 C158.912444,351.652 160.974667,350.585333 162.192444,348.620889 L162.192444,348.620889 Z M148.534667,339.820889 L148.454667,337.865333 C146.356889,337.834222 144.468,338.700889 143.330222,340.518667 L143.303556,338.140889 L141.281333,338.140889 L141.281333,351.345333 L143.330222,351.345333 L143.330222,342.665333 C144.285778,340.745333 146.565778,339.776444 148.534667,339.820889 L148.534667,339.820889 Z M134.721333,351.345333 L136.765778,351.345333 L136.765778,338.140889 L134.699111,338.140889 L134.699111,348.109778 C133.530222,349.305333 132.134667,349.789778 130.863556,349.789778 C129.005778,349.789778 127.685778,348.647556 127.685778,346.420889 L127.685778,338.140889 L125.641333,338.140889 L125.641333,346.829778 C125.641333,349.660889 127.476889,351.652 130.428,351.652 C132.059111,351.652 133.583556,351.047556 134.699111,349.945333 L134.721333,351.345333 Z M117.050222,337.865333 C113.299111,337.865333 110.556889,340.772 110.556889,344.736444 C110.556889,348.718667 113.325778,351.652 117.076889,351.652 C119.668,351.652 121.583556,350.220889 122.619111,348.154222 L120.805778,347.367556 C119.996889,348.852 119.045778,349.789778 116.948,349.789778 C114.516889,349.789778 112.703556,347.754222 112.703556,344.736444 C112.703556,341.825333 114.516889,339.732 116.970222,339.732 C118.996889,339.732 120.028,340.745333 120.756889,342.180889 L122.619111,341.363111 C121.556889,339.163111 119.636889,337.865333 117.050222,337.865333 L117.050222,337.865333 Z M90.1835556,344.656444 C90.1835556,341.825333 91.9702222,339.700889 94.6368889,339.700889 C96.0902222,339.700889 97.3835556,340.314222 98.388,341.514222 L98.388,347.909778 C97.4057778,349.074222 96.108,349.660889 94.6368889,349.660889 C91.9702222,349.660889 90.1835556,347.496444 90.1835556,344.656444 L90.1835556,344.656444 Z M100.463556,350.638667 L100.463556,338.140889 L98.4413333,338.140889 L98.4413333,339.283111 C97.3835556,338.372 95.9835556,337.865333 94.4057778,337.865333 C90.7568889,337.887556 88.0591111,340.852 88.0591111,344.656444 C88.0591111,348.509778 90.7257778,351.523111 94.3791111,351.523111 C95.9568889,351.523111 97.3568889,350.940889 98.388,349.923111 L98.388,350.638667 C98.388,353.394222 96.7302222,355.260889 94.0146667,355.260889 C92.2057778,355.260889 90.8324444,354.518667 89.8502222,353.065333 L88.2191111,354.260889 C89.4324444,355.900889 91.1924444,357.100889 94.0635556,357.100889 C98.2324444,357.100889 100.463556,354.465333 100.463556,350.638667 L100.463556,350.638667 Z M79.2902222,339.700889 C81.148,339.700889 82.4457778,340.852 82.4457778,343.074222 L82.4457778,351.345333 L84.5168889,351.345333 L84.5168889,342.665333 C84.5168889,339.820889 82.6546667,337.865333 79.7257778,337.865333 C78.0457778,337.865333 76.5213333,338.496444 75.4057778,339.647556 L75.3835556,338.140889 L73.3613333,338.140889 L73.3613333,351.345333 L75.4057778,351.345333 L75.4057778,341.443111 C76.5924444,340.185333 78.0235556,339.700889 79.2902222,339.700889 L79.2902222,339.700889 Z M66.8057778,351.354222 L68.8502222,351.354222 L68.8502222,338.140889 L66.8057778,338.140889 L66.8057778,351.354222 Z M67.8102222,335.714222 C68.6146667,335.714222 69.2591111,335.100889 69.2591111,334.305333 C69.2591111,333.518667 68.6146667,332.878667 67.8102222,332.878667 C67.0368889,332.878667 66.388,333.518667 66.388,334.305333 C66.388,335.100889 67.0368889,335.714222 67.8102222,335.714222 L67.8102222,335.714222 Z M51.868,344.736444 C51.868,341.825333 53.7035556,339.700889 56.4013333,339.700889 C57.8724444,339.700889 59.1924444,340.314222 60.2057778,341.514222 L60.2057778,347.998667 C59.2191111,349.185333 57.8991111,349.772 56.4013333,349.772 C53.7035556,349.772 51.868,347.594222 51.868,344.736444 L51.868,344.736444 Z M60.228,351.345333 L62.2724444,351.345333 L62.2724444,332.754222 L60.2057778,332.754222 L60.2057778,339.265333 C59.148,338.340889 57.7435556,337.865333 56.1657778,337.865333 C52.4857778,337.887556 49.7435556,340.852 49.7435556,344.736444 C49.7435556,348.620889 52.468,351.634222 56.1657778,351.634222 C57.7435556,351.634222 59.1657778,351.047556 60.2057778,350.016444 L60.228,351.345333 Z M40.9702222,339.700889 C42.8368889,339.700889 44.1346667,340.852 44.1346667,343.074222 L44.1346667,351.345333 L46.2013333,351.345333 L46.2013333,342.665333 C46.2013333,339.820889 44.3391111,337.865333 41.4102222,337.865333 C39.7257778,337.865333 38.2057778,338.496444 37.0857778,339.647556 L37.068,338.140889 L35.0457778,338.140889 L35.0457778,351.345333 L37.0857778,351.345333 L37.0857778,341.443111 C38.2813333,340.185333 39.7035556,339.700889 40.9702222,339.700889 L40.9702222,339.700889 Z M28.4902222,351.354222 L30.5346667,351.354222 L30.5346667,338.140889 L28.4902222,338.140889 L28.4902222,351.354222 Z M29.4946667,335.714222 C30.2991111,335.714222 30.9435556,335.100889 30.9435556,334.305333 C30.9435556,333.518667 30.2991111,332.878667 29.4946667,332.878667 C28.7213333,332.878667 28.0724444,333.518667 28.0724444,334.305333 C28.0724444,335.100889 28.7213333,335.714222 29.4946667,335.714222 L29.4946667,335.714222 Z M15.4546667,351.345333 L15.4546667,343.105333 L22.9346667,343.105333 L22.9346667,341.212 L15.4546667,341.212 L15.4546667,335.309778 L25.2102222,335.309778 L25.2102222,333.465333 L13.2546667,333.465333 L13.2546667,351.345333 L15.4546667,351.345333 Z" id="Finding-cures.-Saving-Lives." fill="#C6093D"></path>
            <path d="M34.2884444,303.663556 L34.2395556,302.379111 C31.8351111,302.081333 30.0795556,301.139111 27.7195556,298.214667 C24.9106667,294.859111 22.4573333,290.254667 20.5506667,286.641333 C25.0662222,285.352444 28.0706667,281.348 28.0706667,276.890222 C28.0706667,271.348 23.6128889,266.894667 16.0395556,266.894667 C13.0306667,266.894667 10.4262222,267.196889 5.71066667,267.196889 C3.95955556,267.241333 1.90622222,267.196889 -0.000444444444,267.143556 L-0.000444444444,268.876889 L2.85288889,269.165778 C3.65288889,269.272444 4.15955556,269.668 4.15955556,270.508 L4.15955556,300.148 C4.15955556,301.339111 3.65288889,301.632444 2.85288889,301.730222 L-0.000444444444,302.028 L-0.000444444444,303.756889 L14.5906667,303.756889 L14.5906667,302.028 L11.9284444,301.685778 C11.2751111,301.583556 10.9284444,301.290222 10.9284444,300.596889 L10.9284444,287.232444 C12.0262222,287.232444 13.1817778,287.281333 13.9328889,287.330222 C16.2884444,291.534667 18.6973333,296.343556 21.604,300.148 C24.0617778,303.414667 26.9151111,304.108 30.2262222,304.108 C31.484,304.108 33.0306667,303.859111 34.2884444,303.663556 L34.2884444,303.663556 Z M13.7817778,284.761333 C12.7328889,284.761333 11.8262222,284.663556 10.9284444,284.610222 L10.9284444,269.765778 C12.1773333,269.619111 13.484,269.619111 14.5906667,269.619111 C18.7506667,269.619111 21.404,272.285778 21.404,277.188 C21.404,282.436889 18.444,284.810222 13.7817778,284.761333 L13.7817778,284.761333 Z M54.2928889,299.410222 L53.1373333,298.019111 C51.084,299.210222 49.0795556,300.148 46.8217778,300.148 C41.6617778,300.148 38.7017778,295.348 38.3995556,289.805778 L53.8395556,289.805778 L53.8395556,288.276889 C53.8395556,282.281333 50.1817778,277.832444 44.2173333,277.832444 C38.7995556,277.832444 32.9328889,283.072444 32.9328889,291.241333 C32.9328889,300.148 39.0484444,304.312444 44.6173333,304.312444 C48.1773333,304.312444 52.2395556,301.241333 54.2928889,299.410222 L54.2928889,299.410222 Z M43.4128889,280.405778 C45.3684444,280.405778 48.0795556,281.796889 48.6751111,287.085778 L38.4484444,287.432444 C38.8484444,282.930222 40.9551111,280.405778 43.4128889,280.405778 L43.4128889,280.405778 Z M74.9417778,296.090222 C74.9417778,292.676889 73.0884444,290.299111 68.5284444,288.814667 L65.3728889,287.783556 C61.9595556,286.641333 61.0617778,285.250222 61.0617778,283.525778 C61.0617778,281.543556 62.5595556,280.210222 65.2217778,280.210222 C68.7773333,280.210222 70.2351111,282.388 71.4351111,285.552444 L73.2884444,285.552444 L73.2395556,279.419111 C70.684,278.330222 68.9773333,277.832444 66.4217778,277.832444 C60.8617778,277.832444 56.7506667,281.294667 56.7506667,285.894667 C56.7506667,289.556889 58.8528889,291.739111 63.6128889,293.268 L66.3728889,294.161333 C69.484,295.152444 70.1817778,296.690222 70.1817778,298.512444 C70.1817778,300.596889 68.5773333,302.379111 65.4217778,302.379111 C61.8617778,302.379111 60.3551111,300.250222 59.0573333,296.036889 L56.8973333,296.036889 L57.2484444,302.868 C58.4973333,303.565778 61.4617778,304.548 64.5684444,304.548 C70.084,304.548 74.9417778,301.534667 74.9417778,296.090222 L74.9417778,296.090222 Z M98.804,299.410222 L97.6573333,298.019111 C95.5995556,299.210222 93.5951111,300.148 91.3373333,300.148 C86.1728889,300.148 83.2173333,295.348 82.9151111,289.805778 L98.3551111,289.805778 L98.3551111,288.276889 C98.3551111,282.281333 94.7017778,277.832444 88.7328889,277.832444 C83.3151111,277.832444 77.4484444,283.072444 77.4484444,291.241333 C77.4484444,300.148 83.564,304.312444 89.1328889,304.312444 C92.6884444,304.312444 96.7506667,301.241333 98.804,299.410222 L98.804,299.410222 Z M87.9284444,280.405778 C89.8795556,280.405778 92.5906667,281.796889 93.1951111,287.085778 L82.9684444,287.432444 C83.364,282.930222 85.4706667,280.405778 87.9284444,280.405778 L87.9284444,280.405778 Z M115.550667,304.503556 L123.772889,303.170222 L123.670667,301.730222 L122.470667,301.583556 C120.866222,301.383556 120.217333,300.548 120.217333,298.863556 L120.159556,284.956889 C120.159556,280.996889 117.652889,277.685778 112.292889,277.685778 C107.577333,277.685778 101.666222,281.445778 101.666222,285.250222 C101.666222,286.192444 101.915111,287.183556 102.466222,287.872444 L107.426222,285.894667 C106.826222,284.859111 106.577333,284.019111 106.528444,283.174667 C106.479556,281.690222 107.528444,280.503556 109.839556,280.503556 C112.292889,280.503556 114.150667,282.534667 114.150667,284.859111 L114.199556,289.263556 L106.728444,291.983556 C103.017333,293.321333 100.861778,295.445778 100.861778,298.761333 C100.861778,301.983556 102.964,304.601333 107.328444,304.601333 C109.484,304.601333 112.146222,302.579111 114.448444,300.894667 C114.550667,302.125778 114.901778,303.516889 115.550667,304.503556 L115.550667,304.503556 Z M106.577333,297.032444 C106.577333,295.299111 107.079556,293.819111 109.532889,293.019111 L114.199556,291.534667 L114.248444,299.063556 C112.492889,300.054667 111.186222,300.694667 110.088444,300.694667 C107.932889,300.694667 106.577333,299.156889 106.577333,297.032444 L106.577333,297.032444 Z M138.110667,302.125778 L135.804,301.832444 C135.101778,301.730222 134.599556,301.534667 134.599556,300.548 L134.599556,286.934667 C135.657333,284.859111 137.310667,282.779111 139.568444,282.534667 C141.115111,282.334667 142.572889,282.979111 143.826222,283.765778 L145.275111,278.721333 C144.177333,277.832444 142.572889,277.339111 140.764,277.525778 C138.008444,277.832444 136.204,280.503556 134.448444,283.965778 C134.448444,281.992444 134.350667,279.312444 134.048444,277.934667 L124.826222,279.814667 L124.928444,281.250222 L126.577333,281.396889 C127.932889,281.494667 128.484,282.436889 128.484,284.121333 L128.484,300.548 C128.484,301.534667 128.030667,301.730222 127.284,301.832444 L125.177333,302.125778 L125.177333,303.756889 L138.110667,303.756889 L138.110667,302.125778 Z M150.941778,289.112444 C150.941778,283.219111 153.857333,280.650222 157.159556,280.650222 C159.817333,280.650222 161.572889,281.690222 163.426222,285.450222 L165.181778,285.450222 L165.181778,279.765778 C163.279556,278.672444 161.372889,277.832444 158.017333,277.832444 C151.848444,277.832444 145.324,282.828 145.324,291.490222 C145.324,300.250222 151.595111,304.254667 156.959556,304.254667 C160.470667,304.254667 164.026222,301.036889 165.981778,299.312444 L164.981778,298.072444 C163.226222,299.263556 161.172889,300.148 159.066222,300.148 C153.857333,300.148 150.941778,294.903556 150.941778,289.112444 L150.941778,289.112444 Z M179.772889,302.125778 L177.466222,301.832444 C176.710667,301.730222 176.261778,301.534667 176.261778,300.548 L176.261778,284.072444 C177.466222,283.023556 179.266222,282.134667 181.021778,282.134667 C183.981778,282.134667 185.484,283.872444 185.484,286.348 L185.484,300.548 C185.484,301.534667 184.981778,301.730222 184.284,301.832444 L182.226222,302.125778 L182.226222,303.756889 L194.661778,303.756889 L194.661778,302.125778 L192.808444,301.832444 C192.052889,301.730222 191.599556,301.534667 191.599556,300.548 L191.599556,285.156889 C191.599556,281.348 189.097333,277.934667 184.132889,277.934667 C181.319556,277.934667 178.417333,279.468 176.261778,281.836889 L176.261778,270.214667 C176.261778,268.379111 176.359556,266.699111 176.412889,265.303556 C174.452889,265.708 168.492889,266.788 166.435111,267.143556 L166.532889,268.530222 L168.439556,268.676889 C169.546222,268.774667 170.141778,269.668 170.141778,271.396889 L170.141778,300.548 C170.141778,301.534667 169.692889,301.730222 168.941778,301.832444 L167.084,302.125778 L167.084,303.756889 L179.772889,303.756889 L179.772889,302.125778 Z M220.577333,302.028 L217.724,301.730222 C216.915111,301.632444 216.417333,301.339111 216.417333,300.148 L216.417333,286.841333 L232.661778,286.841333 L232.661778,300.148 C232.661778,301.339111 232.164,301.632444 231.355111,301.730222 L228.497333,302.028 L228.497333,303.756889 L243.586222,303.756889 L243.586222,302.028 L240.732889,301.730222 C239.928444,301.632444 239.426222,301.339111 239.426222,300.148 L239.426222,270.756889 C239.426222,269.561333 239.928444,269.272444 240.732889,269.165778 L243.586222,268.876889 L243.586222,267.143556 L228.497333,267.143556 L228.497333,268.876889 L231.355111,269.165778 C232.164,269.272444 232.661778,269.561333 232.661778,270.756889 L232.661778,284.019111 L216.417333,284.019111 L216.417333,270.756889 C216.417333,269.561333 216.915111,269.272444 217.724,269.165778 L220.577333,268.876889 L220.577333,267.143556 L205.488444,267.143556 L205.488444,268.876889 L208.346222,269.165778 C209.146222,269.272444 209.648444,269.561333 209.648444,270.756889 L209.648444,300.148 C209.648444,301.339111 209.146222,301.632444 208.346222,301.730222 L205.488444,302.028 L205.488444,303.756889 L220.577333,303.756889 L220.577333,302.028 Z M244.937333,291.583556 C244.937333,298.961333 249.808444,304.405778 257.017333,304.405778 C264.546222,304.405778 270.057333,297.970222 270.057333,290.645778 C270.057333,283.330222 265.092889,277.832444 257.875111,277.832444 C250.350667,277.832444 244.937333,284.312444 244.937333,291.583556 L244.937333,291.583556 Z M263.888444,291.490222 C263.888444,298.019111 261.381778,301.779111 257.777333,301.779111 C253.915111,301.779111 251.106222,297.521333 251.106222,290.748 C251.106222,284.263556 253.515111,280.454667 257.221778,280.454667 C260.977333,280.454667 263.888444,284.761333 263.888444,291.490222 L263.888444,291.490222 Z M291.115111,296.090222 C291.115111,292.676889 289.261778,290.299111 284.697333,288.814667 L281.537333,287.783556 C278.124,286.641333 277.230667,285.250222 277.230667,283.525778 C277.230667,281.543556 278.728444,280.210222 281.390667,280.210222 C284.946222,280.210222 286.399556,282.388 287.604,285.552444 L289.457333,285.552444 L289.404,279.419111 C286.848444,278.330222 285.150667,277.832444 282.590667,277.832444 C277.030667,277.832444 272.915111,281.294667 272.915111,285.894667 C272.915111,289.556889 275.021778,291.739111 279.786222,293.268 L282.537333,294.161333 C285.648444,295.152444 286.350667,296.690222 286.350667,298.512444 C286.350667,300.596889 284.746222,302.379111 281.586222,302.379111 C278.026222,302.379111 276.519556,300.250222 275.221778,296.036889 L273.070667,296.036889 L273.417333,302.868 C274.666222,303.565778 277.626222,304.548 280.741778,304.548 C286.252889,304.548 291.115111,301.534667 291.115111,296.090222 L291.115111,296.090222 Z M306.346222,314.348 L303.795111,314.054667 C303.044,313.952444 302.595111,313.756889 302.595111,312.770222 L302.595111,303.516889 C303.848444,304.059111 305.150667,304.356889 306.604,304.356889 C313.319556,304.356889 319.937333,298.570222 319.937333,290.254667 C319.937333,282.632444 315.430667,277.881333 309.710667,277.881333 C306.955111,277.881333 304.350667,279.356889 302.395111,281.294667 C302.341778,280.054667 302.186222,278.721333 302.039556,277.934667 L292.817333,279.814667 L292.915111,281.250222 L294.319556,281.396889 C295.830667,281.543556 296.479556,282.436889 296.479556,284.121333 L296.479556,312.770222 C296.479556,313.756889 296.030667,313.952444 295.270667,314.054667 L293.164,314.348 L293.164,315.979111 L306.346222,315.979111 L306.346222,314.348 Z M307.004,281.894667 C311.164,281.894667 313.919556,285.601333 313.919556,291.388 C313.919556,298.365778 310.417333,301.534667 306.906222,301.534667 C305.252889,301.534667 303.848444,300.988 302.595111,300.001333 L302.595111,283.570222 C303.741778,282.632444 305.350667,281.894667 307.004,281.894667 L307.004,281.894667 Z M331.919556,269.912444 C331.919556,267.988 330.315111,266.196889 328.164,266.196889 C326.004,266.196889 324.395111,267.988 324.395111,269.912444 C324.395111,271.845778 326.004,273.619111 328.164,273.619111 C330.315111,273.619111 331.919556,271.845778 331.919556,269.912444 L331.919556,269.912444 Z M334.626222,303.756889 L334.626222,302.125778 L332.519556,301.832444 C331.772889,301.730222 331.319556,301.534667 331.319556,300.548 L331.319556,282.681333 C331.319556,280.899111 331.364,279.214667 331.466222,277.832444 C329.510667,278.281333 323.550667,279.419111 321.546222,279.814667 L321.644,281.250222 L323.497333,281.396889 C324.750667,281.494667 325.208444,282.481333 325.208444,284.072444 L325.208444,300.548 C325.208444,301.534667 324.750667,301.730222 323.999556,301.832444 L321.892889,302.125778 L321.892889,303.756889 L334.626222,303.756889 Z M351.621778,301.534667 L351.075111,300.054667 C349.866222,300.485778 348.768444,300.748 347.661778,300.748 C346.052889,300.748 344.804,300.094667 344.857333,296.783556 L344.857333,281.739111 L351.124,281.739111 L351.124,278.921333 L344.857333,278.921333 L344.857333,272.285778 L338.688444,275.054667 L338.688444,278.921333 L335.128444,278.921333 L335.128444,281.739111 L338.688444,281.739111 L338.688444,297.579111 C338.688444,300.894667 340.244,304.156889 344.955111,304.156889 C346.510667,304.156889 348.257333,303.468 351.621778,301.534667 L351.621778,301.534667 Z M368.017333,304.503556 L376.235111,303.170222 L376.137333,301.730222 L374.932889,301.583556 C373.328444,301.383556 372.679556,300.548 372.679556,298.863556 L372.630667,284.956889 C372.630667,280.996889 370.124,277.685778 364.755111,277.685778 C360.044,277.685778 354.128444,281.445778 354.128444,285.250222 C354.128444,286.192444 354.377333,287.183556 354.928444,287.872444 L359.892889,285.894667 C359.292889,284.859111 359.039556,284.019111 358.990667,283.174667 C358.941778,281.690222 359.995111,280.503556 362.297333,280.503556 C364.755111,280.503556 366.612889,282.534667 366.612889,284.859111 L366.661778,289.263556 L359.195111,291.983556 C355.484,293.321333 353.324,295.445778 353.324,298.761333 C353.324,301.983556 355.430667,304.601333 359.790667,304.601333 C361.950667,304.601333 364.604,302.579111 366.910667,300.894667 C367.008444,302.125778 367.359556,303.516889 368.017333,304.503556 L368.017333,304.503556 Z M359.039556,297.032444 C359.039556,295.299111 359.541778,293.819111 361.999556,293.019111 L366.661778,291.534667 L366.710667,299.063556 C364.955111,300.054667 363.657333,300.694667 362.550667,300.694667 C360.395111,300.694667 359.039556,299.156889 359.039556,297.032444 L359.039556,297.032444 Z M387.066222,300.548 L387.066222,270.214667 C387.066222,268.379111 387.164,266.699111 387.217333,265.303556 C385.261778,265.708 379.292889,266.788 377.244,267.143556 L377.337333,268.530222 L379.244,268.676889 C380.346222,268.774667 380.950667,269.668 380.950667,271.396889 L380.950667,300.548 C380.950667,301.534667 380.501778,301.730222 379.741778,301.832444 L377.639556,302.125778 L377.639556,303.756889 L390.319556,303.756889 L390.319556,302.125778 L388.266222,301.832444 C387.515111,301.730222 387.066222,301.534667 387.066222,300.548 L387.066222,300.548 Z" id="Research-Hospital" fill="#626569"></path>
            <path d="M26.2697778,240.534222 C26.2697778,235.792 24.4164444,232.516444 17.2475556,230.192 L12.6342222,228.712 C8.36755556,227.325333 6.96755556,225.294222 6.96755556,222.427556 C6.96755556,218.960889 9.52311111,216.885333 13.4831111,216.885333 C17.4431111,216.885333 20.1008889,218.569778 21.7097778,223.960889 L23.7097778,223.960889 L23.7097778,216.289778 C20.7008889,214.903111 17.8475556,214.063111 14.2831111,214.063111 C7.36755556,214.063111 2.052,218.463111 2.052,225.098667 C2.052,229.894222 4.26088889,233.214222 11.132,235.383111 L15.1897778,236.676444 C19.652,238.112 21.052,240.187556 21.052,243.312 C21.052,246.529778 18.4475556,249.196444 13.6342222,249.196444 C8.52311111,249.196444 6.16755556,247.316444 4.56311111,241.480889 L2.25644444,241.480889 L2.30977778,249.698667 C6.51422222,251.334222 9.37644444,251.920889 13.0342222,251.920889 C20.3497778,251.920889 26.2697778,247.369778 26.2697778,240.534222 L26.2697778,240.534222 Z M44.1631111,249.049778 L43.612,247.565333 C42.412,248.014222 41.3053333,248.254222 40.2075556,248.254222 C38.6031111,248.254222 37.3453333,247.614222 37.3986667,244.298667 L37.3986667,229.258667 L43.6653333,229.258667 L43.6653333,226.432 L37.3986667,226.432 L37.3986667,219.800889 L31.2297778,222.569778 L31.2297778,226.432 L27.6742222,226.432 L27.6742222,229.258667 L31.2297778,229.258667 L31.2297778,245.085333 C31.2297778,248.405333 32.7853333,251.672 37.4964444,251.672 C39.052,251.672 40.8075556,250.983111 44.1631111,249.049778 L44.1631111,249.049778 Z M54.1408889,248.112 C54.1408889,246.227556 52.6386667,244.543111 50.532,244.543111 C48.4253333,244.543111 46.9231111,246.227556 46.9231111,248.112 C46.9231111,249.987556 48.4253333,251.672 50.532,251.672 C52.6386667,251.672 54.1408889,249.987556 54.1408889,248.112 L54.1408889,248.112 Z M74.4431111,218.267556 C74.4431111,217.085333 74.9453333,216.783111 75.7942222,216.685333 L78.6075556,216.392 L78.6075556,214.663111 L63.3142222,214.663111 L63.3142222,216.392 L66.4742222,216.636444 C67.1231111,216.685333 67.4208889,217.032 67.4208889,217.769778 L67.4208889,250.729778 C67.4208889,256.720889 64.9186667,259.538667 60.0075556,261.418667 L60.7097778,262.956444 C69.2297778,261.720889 74.4431111,257.409778 74.4431111,248.649778 L74.4431111,218.267556 Z M98.4075556,252.018667 L107.029778,250.680889 L106.927556,249.245333 L105.674222,249.098667 C104.074222,248.898667 103.420889,248.058667 103.420889,246.378667 L103.420889,230.192 C103.420889,228.409778 103.469778,226.738667 103.567556,225.343111 L93.6475556,227.325333 L93.7453333,228.765333 L95.6031111,228.916444 C96.852,229.009778 97.3008889,229.996444 97.3008889,231.583111 L97.3008889,246.378667 C96.052,247.369778 94.4475556,248.112 92.9408889,248.112 C89.9853333,248.112 88.4786667,246.280889 88.4786667,243.654222 L88.4786667,230.192 C88.4786667,228.409778 88.5275556,226.738667 88.6297778,225.343111 L78.7097778,227.325333 L78.8075556,228.765333 L80.6564444,228.916444 C81.9142222,229.009778 82.3631111,229.996444 82.3631111,231.583111 L82.3631111,245.440889 C82.3631111,248.849778 84.9231111,252.165333 89.6342222,252.165333 C92.2431111,252.165333 95.3497778,250.485333 97.5497778,248.360889 C97.6564444,249.649778 97.9586667,251.027556 98.4075556,252.018667 L98.4075556,252.018667 Z M135.807556,250.680889 L135.709778,249.245333 L134.252,249.098667 C132.647556,248.952 131.994222,248.058667 131.994222,246.378667 L131.994222,217.720889 C131.994222,215.894222 132.096444,214.205333 132.145333,212.832 L121.918667,214.663111 L122.020889,216.045333 L124.172,216.187556 C125.278667,216.289778 125.878667,217.178667 125.878667,218.916444 L125.878667,226.232 C124.620889,225.694222 123.323111,225.400889 121.869778,225.400889 C115.154222,225.400889 108.532,231.187556 108.532,239.503111 C108.532,247.116444 113.043111,251.876444 118.763111,251.876444 C121.518667,251.876444 124.172,250.334222 126.127556,248.405333 C126.229778,249.649778 126.532,251.076444 126.980889,252.018667 L135.807556,250.680889 Z M114.549778,238.360889 C114.549778,231.383111 118.060889,228.218667 121.567556,228.218667 C123.220889,228.218667 124.620889,228.765333 125.878667,229.752 L125.878667,246.183111 C124.723111,247.116444 123.123111,247.863111 121.469778,247.863111 C117.309778,247.863111 114.549778,244.147556 114.549778,238.360889 L114.549778,238.360889 Z M158.718667,246.920889 L157.563111,245.538667 C155.505333,246.725333 153.500889,247.663111 151.243111,247.663111 C146.078667,247.663111 143.123111,242.863111 142.825333,237.316444 L158.265333,237.316444 L158.265333,235.792 C158.265333,229.796444 154.603111,225.343111 148.643111,225.343111 C143.225333,225.343111 137.354222,230.592 137.354222,238.756444 C137.354222,247.663111 143.474222,251.823111 149.038667,251.823111 C152.603111,251.823111 156.665333,248.752 158.718667,246.920889 L158.718667,246.920889 Z M147.834222,227.916444 C149.789778,227.916444 152.500889,229.307556 153.100889,234.596444 L142.874222,234.952 C143.269778,230.440889 145.380889,227.916444 147.834222,227.916444 L147.834222,227.916444 Z M202.580889,248.996444 L202.678667,241.027556 L200.372,241.027556 C198.918667,246.969778 197.060889,249.098667 190.594222,249.098667 C183.078667,249.098667 177.709778,242.814222 177.514222,232.916444 C177.314222,223.116444 182.576444,216.734222 190.296444,216.734222 C195.812,216.734222 198.420889,219.009778 200.025333,224.352 L202.332,224.352 L202.176444,216.489778 C199.016444,215.205333 195.812,214.009778 191.052,214.009778 C178.518667,214.009778 169.940889,222.427556 169.940889,233.409778 C169.940889,244.147556 177.865333,251.969778 190.296444,251.969778 C195.056444,251.969778 198.016444,251.076444 202.580889,248.996444 L202.580889,248.996444 Z M218.723111,249.649778 L216.416444,249.352 C215.665333,249.245333 215.212,249.049778 215.212,248.058667 L215.212,231.583111 C216.416444,230.538667 218.216444,229.654222 219.976444,229.654222 C222.936444,229.654222 224.434222,231.383111 224.434222,233.858667 L224.434222,248.058667 C224.434222,249.049778 223.932,249.245333 223.234222,249.352 L221.180889,249.649778 L221.180889,251.272 L233.612,251.272 L233.612,249.649778 L231.754222,249.352 C231.007556,249.245333 230.554222,249.049778 230.554222,248.058667 L230.554222,232.667556 C230.554222,228.858667 228.047556,225.445333 223.083111,225.445333 C220.274222,225.445333 217.367556,226.978667 215.212,229.356444 L215.212,217.720889 C215.212,215.894222 215.314222,214.205333 215.363111,212.832 C213.407556,213.218667 207.443111,214.316444 205.385333,214.663111 L205.487556,216.045333 L207.389778,216.187556 C208.496444,216.289778 209.096444,217.178667 209.096444,218.916444 L209.096444,248.058667 C209.096444,249.049778 208.643111,249.245333 207.896444,249.352 L206.038667,249.649778 L206.038667,251.272 L218.723111,251.272 L218.723111,249.649778 Z M245.540889,217.432 C245.540889,215.494222 243.940889,213.716444 241.785333,213.716444 C239.629778,213.716444 238.025333,215.494222 238.025333,217.432 C238.025333,219.356444 239.629778,221.143111 241.785333,221.143111 C243.940889,221.143111 245.540889,219.356444 245.540889,217.432 L245.540889,217.432 Z M248.252,251.272 L248.252,249.649778 L246.149778,249.352 C245.389778,249.245333 244.936444,249.049778 244.936444,248.058667 L244.936444,230.192 C244.936444,228.409778 244.989778,226.738667 245.092,225.343111 C243.132,225.792 237.167556,226.929778 235.163111,227.325333 L235.265333,228.765333 L237.118667,228.916444 C238.376444,229.009778 238.825333,229.996444 238.825333,231.583111 L238.825333,248.058667 C238.825333,249.049778 238.376444,249.245333 237.625333,249.352 L235.514222,249.649778 L235.514222,251.272 L248.252,251.272 Z M259.278667,248.058667 L259.278667,217.720889 C259.278667,215.894222 259.380889,214.205333 259.429778,212.832 C257.478667,213.218667 251.509778,214.316444 249.452,214.663111 L249.549778,216.045333 L251.460889,216.187556 C252.558667,216.289778 253.163111,217.178667 253.163111,218.916444 L253.163111,248.058667 C253.163111,249.049778 252.714222,249.245333 251.963111,249.352 L249.852,249.649778 L249.852,251.272 L262.532,251.272 L262.532,249.649778 L260.483111,249.352 C259.727556,249.245333 259.278667,249.049778 259.278667,248.058667 L259.278667,248.058667 Z M291.865333,250.680889 L291.763111,249.245333 L290.309778,249.098667 C288.709778,248.952 288.056444,248.058667 288.056444,246.378667 L288.056444,217.720889 C288.056444,215.894222 288.158667,214.205333 288.203111,212.832 L277.980889,214.663111 L278.078667,216.045333 L280.234222,216.187556 C281.336444,216.289778 281.940889,217.178667 281.940889,218.916444 L281.940889,226.232 C280.687556,225.694222 279.376444,225.400889 277.932,225.400889 C271.207556,225.400889 264.589778,231.187556 264.589778,239.503111 C264.589778,247.116444 269.100889,251.876444 274.820889,251.876444 C277.576444,251.876444 280.234222,250.334222 282.189778,248.405333 C282.292,249.649778 282.589778,251.076444 283.038667,252.018667 L291.865333,250.680889 Z M270.603111,238.360889 C270.603111,231.383111 274.114222,228.218667 277.629778,228.218667 C279.278667,228.218667 280.687556,228.765333 281.940889,229.752 L281.940889,246.183111 C280.785333,247.116444 279.176444,247.863111 277.523111,247.863111 C273.358667,247.863111 270.603111,244.147556 270.603111,238.360889 L270.603111,238.360889 Z M305.900889,249.649778 L303.598667,249.352 C302.892,249.245333 302.389778,249.049778 302.389778,248.058667 L302.389778,234.449778 C303.443111,232.369778 305.100889,230.289778 307.358667,230.049778 C308.909778,229.854222 310.363111,230.489778 311.616444,231.276444 L313.069778,226.232 C311.967556,225.343111 310.363111,224.854222 308.558667,225.054222 C305.798667,225.343111 303.998667,228.018667 302.243111,231.480889 C302.243111,229.507556 302.145333,226.823111 301.838667,225.445333 L292.616444,227.325333 L292.718667,228.765333 L294.367556,228.916444 C295.723111,229.009778 296.274222,229.947556 296.274222,231.627556 L296.274222,248.058667 C296.274222,249.049778 295.825333,249.245333 295.074222,249.352 L292.967556,249.649778 L292.967556,251.272 L305.900889,251.272 L305.900889,249.649778 Z M334.478667,246.920889 L333.323111,245.538667 C331.265333,246.725333 329.265333,247.663111 327.007556,247.663111 C321.847556,247.663111 318.887556,242.863111 318.585333,237.316444 L334.025333,237.316444 L334.025333,235.792 C334.025333,229.796444 330.367556,225.343111 324.403111,225.343111 C318.985333,225.343111 313.118667,230.592 313.118667,238.756444 C313.118667,247.663111 319.234222,251.823111 324.798667,251.823111 C328.363111,251.823111 332.416444,248.752 334.478667,246.920889 L334.478667,246.920889 Z M323.594222,227.916444 C325.554222,227.916444 328.260889,229.307556 328.860889,234.596444 L318.634222,234.952 C319.034222,230.440889 321.140889,227.916444 323.594222,227.916444 L323.594222,227.916444 Z M349.012,249.649778 L346.958667,249.352 C346.256444,249.245333 345.758667,249.049778 345.758667,248.058667 L345.758667,231.583111 C346.958667,230.538667 348.763111,229.654222 350.523111,229.654222 C353.474222,229.654222 354.980889,231.383111 354.980889,233.858667 L354.980889,248.058667 C354.980889,249.049778 354.478667,249.245333 353.780889,249.352 L351.727556,249.649778 L351.727556,251.272 L364.412,251.272 L364.412,249.649778 L362.300889,249.352 C361.545333,249.245333 361.096444,249.049778 361.096444,248.058667 L361.096444,232.667556 C361.096444,228.858667 358.589778,225.445333 353.420889,225.445333 C350.714222,225.445333 347.767556,227.085333 345.607556,229.552 C345.558667,228.116444 345.403111,226.383111 345.207556,225.445333 L335.980889,227.325333 L336.078667,228.765333 L337.736444,228.916444 C339.092,229.009778 339.643111,229.947556 339.643111,231.627556 L339.643111,248.058667 C339.643111,249.049778 339.194222,249.245333 338.434222,249.352 L336.327556,249.649778 L336.327556,251.272 L349.012,251.272 L349.012,249.649778 Z M367.465333,222.920889 C367.465333,224.463111 366.309778,225.840889 364.505333,227.374222 L365.505333,228.263111 C368.967556,225.738667 371.674222,222.716444 371.674222,218.814222 C371.674222,216.187556 369.869778,214.756444 367.963111,214.756444 C364.558667,214.756444 363.852,218.463111 364.300889,219.800889 C366.203111,220.440889 367.465333,221.240889 367.465333,222.920889 L367.465333,222.920889 Z M389.216444,243.605333 C389.216444,240.187556 387.363111,237.823111 382.803111,236.334222 L379.643111,235.294222 C376.238667,234.152 375.336444,232.769778 375.336444,231.036444 C375.336444,229.058667 376.834222,227.720889 379.500889,227.720889 C383.052,227.720889 384.505333,229.894222 385.714222,233.058667 L387.567556,233.058667 L387.509778,226.929778 C384.954222,225.840889 383.252,225.343111 380.696444,225.343111 C375.136444,225.343111 371.025333,228.805333 371.025333,233.409778 C371.025333,237.080889 373.127556,239.249778 377.892,240.787556 L380.647556,241.676444 C383.758667,242.663111 384.456444,244.200889 384.456444,246.032 C384.456444,248.112 382.852,249.889778 379.700889,249.889778 C376.136444,249.889778 374.629778,247.765333 373.327556,243.556444 L371.176444,243.556444 L371.523111,250.392 C372.776444,251.076444 375.732,252.072 378.843111,252.072 C384.358667,252.072 389.216444,249.049778 389.216444,243.605333 L389.216444,243.605333 Z" id="St.-Jude-Children's" fill="#626569"></path>
            <path d="M392.237333,197.174667 C396.588444,197.174667 400.001778,200.556889 400.001778,204.872444 C400.001778,209.201333 396.588444,212.579111 392.237333,212.579111 C387.904,212.579111 384.512889,209.201333 384.512889,204.872444 C384.512889,200.556889 387.904,197.174667 392.237333,197.174667 Z M392.237333,198.516889 C388.695111,198.516889 386.032889,201.245778 386.032889,204.872444 C386.032889,208.503556 388.695111,211.236889 392.237333,211.236889 C395.819556,211.236889 398.521778,208.503556 398.521778,204.872444 C398.521778,201.245778 395.819556,198.516889 392.237333,198.516889 Z M392.743556,201.244889 C394.112444,201.244889 394.996889,202.058222 394.996889,203.307111 C394.996889,204.062667 394.539111,204.747111 393.739111,205.187111 L393.739111,205.187111 L393.654667,205.231556 L395.556889,208.427111 L393.992444,208.427111 L392.285778,205.484889 L390.952444,205.484889 L390.952444,208.427111 L389.508,208.427111 L389.508,201.244889 Z M392.468,202.276 L390.952444,202.276 L390.952444,204.462667 L392.396889,204.462667 C393.223556,204.462667 393.596889,203.920444 393.596889,203.387111 C393.596889,202.711556 393.152444,202.276 392.468,202.276 L392.468,202.276 Z" id="Trademark" fill="#626569"></path>
            <path d="M235.080444,164.396889 L235.009333,164.303556 C239.231556,158.219111 245.040444,150.414667 247.120444,148.961333 C247.267111,148.899111 247.373778,148.854667 247.538222,148.774667 C253.818222,148.410222 257.342667,146.228 258.267111,145.556889 C259.453778,144.708 262.929333,141.343556 263.502667,140.730222 C264.098222,140.094667 265.902667,136.019111 266.636,134.303556 L266.636,134.303556 L266.551556,134.450222 L266.844889,133.765778 L266.893778,133.583556 L267.369333,132.108 C267.351556,131.659111 267.111556,131.268 266.720444,131.054667 C266.440444,130.908 266.089333,130.908 265.716,130.948 C265.733778,130.908 265.742667,130.854667 265.742667,130.854667 C265.964889,130.383556 266.209333,129.765778 266.209333,129.334667 L266.209333,129.232444 C266.147111,128.756889 265.884889,128.379111 265.480444,128.148 C265.062667,127.916889 264.507111,127.934667 263.938222,128.059111 C263.644889,127.685778 263.342667,127.454667 263.262667,127.428 C263.142667,127.343556 262.449333,127.094667 261.182667,127.863556 C260.684889,128.156889 260.187111,128.690222 259.787111,129.192444 C259.836,128.801333 259.884889,128.405778 259.884889,128.405778 C259.773778,127.988 259.453778,127.641333 259.027111,127.481333 C258.422667,127.259111 257.662667,127.405778 256.929333,127.890222 C256.124889,128.428 255.044889,130.130222 254.738222,130.628 C254.471556,130.850222 253.400444,131.770222 252.764889,132.872444 C250.716,133.534667 249.440444,133.499111 248.907111,133.294667 C250.151556,132.574667 251.138222,131.885778 251.676,131.259111 C252.898222,129.792444 253.578222,128.250222 253.578222,127.001333 C253.578222,126.788 253.564889,126.579111 253.524889,126.374667 C253.400444,125.796889 253.089333,125.356889 252.640444,125.125778 C251.409333,124.508 249.938222,125.756889 249.658222,126.010222 C249.636,126.045778 249.227111,126.476889 249.004889,126.712444 C248.547111,126.828 247.569333,127.112444 246.924889,127.685778 C246.467111,128.090222 245.929333,128.268 245.302667,128.481333 C244.542667,128.730222 243.689333,129.028 242.849333,129.739111 L242.787111,129.788 C242.804889,129.770222 242.827111,129.761333 242.844889,129.752444 C242.693778,129.854667 241.342667,130.756889 240.924889,131.036889 C238.982667,132.054667 237.951556,133.072444 236.849333,134.152444 C234.671556,136.325778 231.942667,139.005778 219.707111,143.054667 C219.600444,138.574667 216.840444,126.543556 216.280444,121.939111 C215.151556,113.814667 205.720444,102.623556 198.942667,95.5391111 C205.333778,99.2546667 208.911556,99.7746667 212.436,94.9791111 C213.364889,93.5302222 214.831556,95.0902222 216.156,94.8413333 C218.089333,93.8368889 217.840444,93.2946667 217.840444,91.8946667 C218.409333,90.3924444 219.929333,91.1346667 221.058222,90.9524444 C223.907111,90.4813333 222.213778,87.4857778 223.329333,85.988 C235.853778,85.2368889 221.729333,73.7302222 230.160444,68.9568889 C235.649333,66.4057778 237.720444,62.9924444 240.164889,59.6902222 C242.187111,56.9746667 242.600444,59.0991111 244.111556,56.8635556 C246.840444,47.0546667 242.129333,34.9524444 236.062667,26.6235556 C204.978222,-13.332 169.489333,5.08577778 159.142667,29.8413333 C154.862667,36.1257778 156.182667,45.2635556 155.942667,52.7924444 C155.138222,55.4057778 153.569333,55.3346667 151.311556,53.7835556 C150.800444,58.9657778 154.853778,60.0013333 156.649333,60.348 C156.840444,61.0057778 158.022667,62.0191111 158.516,62.7124444 C156.898222,63.1746667 153.511556,62.2457778 152.409333,61.6457778 C152.360444,62.8191111 152.507111,63.7791111 153.449333,64.8591111 C154.196,68.548 156.071556,69.8591111 158.751556,70.9524444 C163.738222,72.9746667 161.396,79.8102222 160.813778,82.6146667 C160.627111,83.2324444 160.440444,83.8546667 160.276,84.4457778 C155.667111,85.6235556 152.596,89.8013333 151.369333,94.1213333 C150.804889,104.619111 145.396,113.325778 145.489333,124.183556 C145.489333,124.183556 145.396,125.774667 145.489333,126.423556 C148.178222,138.165778 144.747111,153.561333 145.311556,165.668 C106.124889,171.508 70.0804444,184.099111 39.3426667,201.819111 C84.9248889,183.485778 138.116,172.925778 194.964889,172.925778 C251.809333,172.925778 304.996,183.485778 350.578222,201.819111 C317.360444,182.668 277.956,169.508 235.080444,164.396889 M200.991556,127.916889 C200.764889,128.548 200.129333,128.596889 200.129333,128.596889 C189.089333,128.952444 179.640444,133.392444 172.044889,141.814667 C172.044889,141.814667 171.196,142.636889 169.049333,140.952444 C167.404889,139.672444 168.009333,138.321333 168.009333,138.321333 C170.938222,130.961333 178.476,126.108 190.396,123.903556 L190.747111,123.854667 C193.187111,123.521333 198.862667,122.734667 200.796,126.543556 C200.796,126.543556 201.209333,127.276889 200.991556,127.916889" id="Child-Logo" fill="#C6093D"></path>
        </g>
    </g>
</svg>