<svg enable-background="new 0 0 72 72" viewBox="0 0 72 72" xmlns="http://www.w3.org/2000/svg"><g fill="#fff"><path d="m62 57.7v.2c-.4 4.2-11.9 7.5-26.1 7.5s-25.7-3.3-26.1-7.5c0-.1 0-.1 0-.2 0 0 0 0 0-.1 0-10.9 8.1-20 19.2-22.8-4.7-2.5-7.9-7.4-7.9-13.1 0-8.1 6.6-14.7 14.7-14.7 8.2 0 14.8 6.6 14.8 14.8 0 5.7-3.2 10.6-7.9 13.1 11.1 2.7 19.2 11.8 19.3 22.8z"/><path d="m9.7 57.7v.2z"/><path d="m62 57.7v.2c0-.1 0-.1 0-.2z"/><path d="m9.7 57.6c0 .1 0 .1 0 0z"/><path d="m62 57.6c0 .1 0 .1 0 0z"/></g></svg>