<?xml version="1.0" encoding="utf-8"?>
<!-- Generator: Adobe Illustrator 24.3.0, SVG Export Plug-In . SVG Version: 6.00 Build 0)  -->
<svg version="1.1" id="Layer_1" xmlns="http://www.w3.org/2000/svg" xmlns:xlink="http://www.w3.org/1999/xlink" x="0px" y="0px"
	 viewBox="0 0 72 72" style="enable-background:new 0 0 72 72;" xml:space="preserve">
<style type="text/css">
	.st0{fill:#FFFFFF;}
</style>
<g>
	<path class="st0" d="M40.8,45.8c0,2.6-2.1,4.7-4.7,4.7c-2.6,0-4.7-2.1-4.7-4.7c0-2.6,2.1-4.7,4.7-4.7S40.8,43.2,40.8,45.8z"/>
	<path class="st0" d="M40.8,45.8c0,2.6-2.1,4.7-4.7,4.7c-2.6,0-4.7-2.1-4.7-4.7c0-2.6,2.1-4.7,4.7-4.7S40.8,43.2,40.8,45.8z"/>
	<path class="st0" d="M36.1,37.5c-4.5,0-8.2,3.7-8.2,8.2s3.7,8.2,8.2,8.2s8.2-3.7,8.2-8.2S40.6,37.5,36.1,37.5z M36.1,51.7
		c-3.3,0-5.9-2.7-5.9-5.9s2.7-5.9,5.9-5.9s5.9,2.7,5.9,5.9S39.4,51.7,36.1,51.7z"/>
	<path class="st0" d="M40.8,45.8c0,2.6-2.1,4.7-4.7,4.7c-2.6,0-4.7-2.1-4.7-4.7c0-2.6,2.1-4.7,4.7-4.7S40.8,43.2,40.8,45.8z"/>
	<path class="st0" d="M48.4,20.8l-8.7,16.1c-0.8-0.3-1.7-0.6-2.6-0.6l9-16.7L48.4,20.8z"/>
	<path class="st0" d="M51.4,22.4l-8.8,16.3c-0.6-0.6-1.4-1.1-2.2-1.5l8.6-16L51.4,22.4z"/>
	<path class="st0" d="M34.9,36.2c-0.9,0.1-1.8,0.4-2.6,0.7l-8.7-16.1l2.3-1.2L34.9,36.2z"/>
	<path class="st0" d="M31.5,37.3c-0.8,0.4-1.5,0.9-2.1,1.6l-8.8-16.4l2.3-1.2L31.5,37.3z"/>
	<polygon class="st0" points="44.5,19.4 43.1,22 28.9,22 27.5,19.4 	"/>
	<polygon class="st0" points="42.6,22.9 41.2,25.5 30.8,25.5 29.4,22.9 	"/>
</g>
</svg>
