<?xml version="1.0" encoding="utf-8"?>
<!-- Generator: Adobe Illustrator 24.3.0, SVG Export Plug-In . SVG Version: 6.00 Build 0)  -->
<svg version="1.1" id="Layer_1" xmlns="http://www.w3.org/2000/svg" xmlns:xlink="http://www.w3.org/1999/xlink" x="0px" y="0px"
	 viewBox="0 0 72 72" style="enable-background:new 0 0 72 72;" xml:space="preserve">
<style type="text/css">
	.st0{fill:#FFFFFF;}
</style>
<g>
	<path class="st0" d="M52,37.6l-3.4,8.3h-4.5l4.5-11C49.8,35.7,51,36.6,52,37.6z"/>
	<path class="st0" d="M47.5,34.1l-4.8,11.8h-4.5l5.6-13.8C45.1,32.7,46.3,33.3,47.5,34.1z"/>
	<path class="st0" d="M42.5,31.7l-5.8,14.2H36c-0.4-1.4-0.9-3.4-1.5-5.7l3.8-9.4C39.9,31,41.2,31.3,42.5,31.7z"/>
	<path class="st0" d="M36.9,30.6L34,37.8c-0.5-2.2-0.9-4.6-1.2-7.1c0.7-0.1,1.3-0.1,2-0.1C35.6,30.6,36.3,30.6,36.9,30.6z"/>
	<path class="st0" d="M19.8,36c-0.7,3.7-1.5,7-2.1,9.2l-0.3,0.7h-3.8l2.7-6.5c0.7-0.7,1.6-1.5,1.6-1.5S19.2,36.5,19.8,36z"/>
	<path class="st0" d="M14,41.7l-1.7,4.2H8.4C8.4,45.9,10.4,44.9,14,41.7z"/>
	<path class="st0" d="M56.4,41.7L54.7,46h-4.5l2.9-7.3l0.1,0.1C54.3,39.8,55.4,40.8,56.4,41.7z"/>
	<path class="st0" d="M61.7,45.9h-5.5l1.3-3.3C60,44.7,61.7,45.9,61.7,45.9z"/>
	<path class="st0" d="M14,41.7l-1.7,4.2H8.4C8.4,45.9,10.4,44.9,14,41.7z"/>
	<path class="st0" d="M36.9,30.6L34,37.8c-0.5-2.2-0.9-4.6-1.2-7.1c0.7-0.1,1.3-0.1,2-0.1C35.6,30.6,36.3,30.6,36.9,30.6z"/>
	<path class="st0" d="M42.5,31.7l-5.8,14.2H36c-0.4-1.4-0.9-3.4-1.5-5.7l3.8-9.4C39.9,31,41.2,31.3,42.5,31.7z"/>
	<path class="st0" d="M47.5,34.1l-4.8,11.8h-4.5l5.6-13.8C45.1,32.7,46.3,33.3,47.5,34.1z"/>
	<path class="st0" d="M52,37.6l-3.4,8.3h-4.5l4.5-11C49.8,35.7,51,36.6,52,37.6z"/>
	<path class="st0" d="M56.4,41.7L54.7,46h-4.5l2.9-7.3l0.1,0.1C54.3,39.8,55.4,40.8,56.4,41.7z"/>
	<path class="st0" d="M61.7,45.9h-5.5l1.3-3.3C60,44.7,61.7,45.9,61.7,45.9z"/>
	<path class="st0" d="M35.2,45.9H18.6c0,0,0.8-2.6,1.7-6.5l0,0c0.3-1.3,0.6-2.8,0.9-4.3s0.5-3,0.7-4.6c0.9-7.1,2.4-12.5,4.9-12.5
		c0.6,0,1.2,0.4,1.7,1c1.5,1.9,2.5,6.2,3.2,11.5c0,0.1,0,0.2,0,0.3c0,0.3,0.1,0.7,0.1,1c0.4,2.7,0.9,5.3,1.4,7.5l0,0
		c0.2,0.8,0.4,1.6,0.6,2.3C34.7,44.3,35.2,45.9,35.2,45.9z"/>
</g>
</svg>
