<svg width="65px" height="65px" viewBox="0 -3 40 40" version="1.1" xmlns="http://www.w3.org/2000/svg" xmlns:xlink="http://www.w3.org/1999/xlink">
  <g stroke="none" stroke-width="1" fill="none" fill-rule="evenodd">
        <g id="pecan-logo" class="pecan-main" transform="translate(17.999850, 17.500088) rotate(360.000000) translate(-17.999850, -17.500088) translate(-0.000150, 0.000088)" fill-rule="nonzero">
            <animateTransform 
              id="spin"
              attributeType="xml" 
              attributeName="transform" 
              type="rotate" 
              values="0;0;360;360;360;360;360;" 
              dur="3s" 
              from="0" 
              to="1"
              begin="0s;pecan-logo.end+12s"
              repeatCount="indefinite" />
            <path class="pecan-slice" d="M21.2373774,0.256260741 C21.2373774,0.256260741 21.2373774,0.256260741 21.2373774,0.256260741 C28.1216056,1.54778582 33.5807582,6.88292799 35.0535366,13.7019927 C35.0535366,13.7019927 35.0535366,13.7019927 35.0535366,13.7019927 C35.1785141,14.2806469 34.8107364,14.8510531 34.2320822,14.9760306 C34.1577226,14.9920907 34.0818646,15.0001893 34.0057904,15.0001487 L26.4528815,15.0001487 C25.8331458,15.0001619 25.2687992,14.6433195 25.0030823,14.0834384 C25.0030823,14.0834384 25.0030823,14.0834384 25.0030823,14.0834384 C24.1624805,12.312241 22.6705759,10.9120569 20.8358378,10.1905549 C20.8358378,10.1905549 20.8358378,10.1905549 20.8358378,10.1905549 C20.3310654,9.99205558 19.9991672,9.50489945 19.9991532,8.9625 L19.9991532,1.2838208 C19.9991138,0.706414405 20.4671942,0.238334035 21.0446006,0.238334035 C21.1092757,0.238334035 21.1738113,0.24433533 21.2373774,0.256260741 Z" id="Path" fill="#1774DB">
              <animate 
                id="op" 
                attributeType="CSS" 
                value="0;0;1;1;1;1;1;1;1;1"
                from="0" 
                to="1" 
                dur="5s" 
                begin="0s" 
                repeatCount="indefinite" />
            </path>
            <path d="M33.4204498,17.3902283 C34.2474498,17.3902283 34.8984498,18.1022283 34.8264498,18.9262283 C33.9924498,28.4822283 25.4554498,35.8302283 15.4604498,34.7262283 C12.7414498,34.4262283 10.2064498,33.4742283 8.00344979,32.0402283 C7.43251229,31.6689783 7.31509041,30.8916736 7.72616585,30.3724378 L7.81544979,30.2722283 L13.2394498,24.8482283 C13.5664498,24.5212283 14.0604498,24.3912283 14.4874498,24.5682283 C14.9364498,24.7542283 15.4054498,24.8982283 15.8914498,24.9932283 C20.4464498,25.8782283 24.4804498,22.7712283 25.1144498,18.5522283 C25.2068498,17.9334283 25.6938631,17.4574905 26.3031224,17.3967824 L26.4354498,17.3902283 L33.4204498,17.3902283 Z M17.4406427,1.21867553 L17.4468498,1.34882831 L17.4468498,8.00182831 C17.4468498,8.84382831 16.8718498,9.61182831 16.0438498,9.76282831 C11.9478498,10.5108283 8.97584979,14.4778283 9.84384979,18.9458283 C10.0068498,19.7808283 10.3138498,20.5668283 10.7348498,21.2828283 C11.0468498,21.8135975 11.0154652,22.4704733 10.6375498,22.9396312 L10.5358498,23.0528283 L5.63584979,27.9528283 C5.02184979,28.5678283 3.99784979,28.5028283 3.47584979,27.8068283 C1.66184979,25.3918283 0.455849786,22.5048283 0.109849786,19.3768283 C-0.996150214,9.35782831 6.38884979,0.803828311 15.9778498,0.0048283107 C16.722072,-0.0575050226 17.3708529,0.49116473 17.4406427,1.21867553 Z" id="Shape" fill="#23AFE5">
              <animate 
                attributeType="CSS" 
                attributeName="opacity"
                from="0" 
                to="1" 
                dur="1s" 
                begin="0s;end+8s" 
                repeatCount="1" />
            </path>
        </g>
    </g>
  
  <style>
    .pecan-main {
      transform-origin: 43.5% 43.5%;
    }

    .pecan-slice {
        animation-name: pecanslice;
        animation-delay: 1s;
        animation-duration: 3s;
        animation-iteration-count: infinite;
    }
    
    @keyframes pecanslice {
        20% {  transform: translate(0,0); }
        40%   {  transform: translate(3px,-3px);
                -webkit-transform: translate(3px,-3px);
                -o-transform: translate(3px,-3px); 
                -moz-transform: translate(3px,-3px);
              }
        60% {  transform: translate(0,0); }
    }
  </style>
</svg>
