<?xml version="1.0" encoding="utf-8"?>
<!-- Generator: Adobe Illustrator 24.0.3, SVG Export Plug-In . SVG Version: 6.00 Build 0)  -->
<svg version="1.1" id="Layer_1" xmlns="http://www.w3.org/2000/svg" xmlns:xlink="http://www.w3.org/1999/xlink" x="0px" y="0px"
	 viewBox="0 0 72 72" style="enable-background:new 0 0 72 72;" xml:space="preserve">
<style type="text/css">
	.st0{fill:#1874DC;}
	.st1{fill:#FFFFFF;}
	.st2{fill:none;}
</style>
<g>
	<path class="st1" d="M62,57.7c0,0.1,0,0.1,0,0.2c-0.4,4.2-11.9,7.5-26.1,7.5c-14.2,0-25.7-3.3-26.1-7.5c0-0.1,0-0.1,0-0.2
		c0,0,0,0,0-0.1C9.8,46.7,17.9,37.6,29,34.8c-4.7-2.5-7.9-7.4-7.9-13.1C21.1,13.6,27.7,7,35.8,7c8.2,0,14.8,6.6,14.8,14.8
		c0,5.7-3.2,10.6-7.9,13.1C53.8,37.6,61.9,46.7,62,57.7C62,57.7,62,57.7,62,57.7z"/>
	<g>
		<path class="st1" d="M9.7,57.7c0,0.1,0,0.1,0,0.2h0V57.7z"/>
		<path class="st1" d="M62,57.7v0.2h0C62,57.8,62,57.8,62,57.7z"/>
		<path class="st1" d="M9.7,57.6L9.7,57.6C9.7,57.7,9.7,57.7,9.7,57.6L9.7,57.6z"/>
		<path class="st1" d="M62,57.6L62,57.6C62,57.7,62,57.7,62,57.6L62,57.6z"/>
	</g>
</g>
</svg>
